<svg id="Layer_1" data-name="Layer 1" xmlns="http://www.w3.org/2000/svg" viewBox="0 0 289.92 272.27"><defs><style>.cls-1{fill:#003cd3;}.cls-2{fill:#fff;}</style></defs><title>SSS</title><path class="cls-1" d="M222.52,326.25a153.31,153.31,0,0,1-53.45-8.82,127.64,127.64,0,0,1-48.51-30.05A141.49,141.49,0,0,1,93,249.21a196.3,196.3,0,0,1-13.22-36c-1.28-4.71,2.06-7.84,5.84-7.71,6.89.26,13.79.07,20.69.08,3.19,0,5,1.34,5.87,4.47a114.24,114.24,0,0,0,20.69,40.37c18.11,22.58,41.33,36.88,69.8,42.31,25.7,4.9,50.48,1.6,73.78-10.24,30.3-15.4,50.27-39.69,60.08-72.26,1-3.35,2.65-4.66,6.09-4.66,7,0,13.92,0,20.87,0,4.38,0,6.76,3.19,5.67,7.44a160.71,160.71,0,0,1-12.4,33.48,152.57,152.57,0,0,1-25.43,35.77c-14.73,15.49-32.3,26.67-52.08,34.39a133.68,133.68,0,0,1-34.33,8.29c-7.43.79-14.91,1.22-22.37,1.81Zm11.15-15.74a7.32,7.32,0,0,0-7.46-7.68c-4.74-.05-8.17,3.14-8.18,7.62a7.5,7.5,0,0,0,7.63,7.62C230.33,318.12,233.62,315,233.67,310.51Zm-69.79-1.93c.55.26.88.38,1.18.56,1.35.78,2.32.74,2.72-1.05a12.92,12.92,0,0,1,.87-2.09c2.39,2.72,4.8,3.3,7.2,1.83a7,7,0,0,0,2.65-7.75,4.68,4.68,0,0,0-5.33-3l-3.78-2.27C167.5,299.55,165.73,304,163.88,308.58Zm-8.71-9.12c2,2.9,4.27,3.8,6.76,2.79a6.77,6.77,0,0,0,3.76-6.92c-.52-3.13-2.48-4.32-5.81-4.29l.3-.44-3.06-2-7,13,2.94,1.64Zm-9.7-20.65a8.17,8.17,0,0,0-5-5.86,4.22,4.22,0,0,0-5,1.35,4,4,0,0,0-.18,5,30.35,30.35,0,0,1,1.78,2.68,7.4,7.4,0,0,1,.29,2.24c-.8-.2-1.88-.15-2.36-.67a24.72,24.72,0,0,1-2.45-3.72l-2.61.52a8.79,8.79,0,0,0,3.7,6.16c2.33,1.57,4.74,1.55,6.42-.07s1.65-3.76,0-6.21a14.51,14.51,0,0,1-1.5-2.23,5.42,5.42,0,0,1,0-1.93,6,6,0,0,1,1.89.45A4.35,4.35,0,0,1,141.7,278C143,280.08,143,280.09,145.47,278.81Zm129.09,16.32c-2.83-2-8.56-.73-10.61,3.27a8,8,0,0,0,4,10.73,7.8,7.8,0,0,0,10.13-4.67l-2.45-1.18c-2.51,2.93-4.32,3.66-6.31,2.66a4.76,4.76,0,0,1-2.46-5.3c.25-.82.75-1.93,1.41-2.17a38.3,38.3,0,0,1,5.52-1.23ZM186.15,312.9a5.8,5.8,0,0,0,6-5.78,6.07,6.07,0,0,0-6.25-6.05,5.83,5.83,0,0,0-6.06,5.79A6.06,6.06,0,0,0,186.15,312.9Zm127.28-32.42c1.69-1.49,3.15-2.89,4.74-4.13,1-.81.82-1.37,0-2.15a5.76,5.76,0,0,0-6.41-1.48,5.7,5.7,0,0,0-3.36,5.28,6.59,6.59,0,0,0,4.12,5.64c4,1.28,8.24-2,7.64-5.9-1.24-.13-2.31-.36-2.83,1.42C316.91,280.73,315.3,281.18,313.43,280.48Zm-34.38,17.39c3.75-2.66,4.31-2.77,5.28-1.24a24.87,24.87,0,0,0-3.6,1.84,3.42,3.42,0,0,0-.63,5.19c1.45,1.75,4.3,1.54,6.18-.42a3.24,3.24,0,0,1,1.16-.82c1-.37,2-.63,3.12-1-1.17-2.41-2.08-4.49-3.15-6.49s-2.61-2.81-4.74-2.33a8.25,8.25,0,0,0-5.34,3.5ZM152.23,285.61c-1.21,1.78-2.29,3.35-3.33,4.95-.73,1.1-1.54,1.93-2.92,1s-.8-1.94-.13-3l3.29-5c-1-.67-1.83-1.22-2.83-1.87-1.26,1.91-2.43,3.7-3.62,5.48-1,1.49-1.87,3-.89,4.82A4.6,4.6,0,0,0,146,294.4a7.15,7.15,0,0,0,2.36,2.17c.24.12,1.12-.78,1.54-1.34.83-1.09,1.55-2.27,2.3-3.43.93-1.42,1.85-2.86,2.81-4.36Zm146.47,9.66c1.35,1.37,2-.17,2.89-.46a1.24,1.24,0,0,0,.29-1.14c-1.75-3-3.56-5.92-5.45-9l-2.86,1.79c1.09,1.82,2.05,3.46,3.05,5.08.7,1.13,1.08,2.23-.35,3.06s-2.09-.12-2.73-1.15c-1-1.66-2.05-3.33-3.14-5.1l-2.89,1.73c1.29,2.13,2.49,4.11,3.68,6.1.89,1.47,2,2.53,3.9,2.34A4,4,0,0,0,298.7,295.27Zm-56,9.85c.27,2.09.5,4,.78,5.86.2,1.35-.05,2.5-1.57,2.7s-1.94-.85-2.09-2.12c-.25-1.94-.54-3.87-.83-5.95l-3.29.45c.31,2.37.6,4.6.88,6.84.22,1.67.63,3.27,2.43,3.86a4.13,4.13,0,0,0,4.8-1.38c.83,1.47,2,.67,3,.51.23,0,.46-1.2.39-1.82-.28-2.62-.75-5.21-1-7.83-.12-1.32-.68-1.66-1.85-1.4C243.91,304.94,243.44,305,242.66,305.12Zm60.07-20.67-.39-.86a9.48,9.48,0,0,1,2.46-1.24c1.36-.25,1.23-1,1.11-2-.16-1.26-1.13-1.05-1.76-.73a15.31,15.31,0,0,0-3.85,2.43,3.13,3.13,0,0,0-.19,4,3,3,0,0,0,3.58,1.36c.75-.18,1.48-.48,2.23-.65a18,18,0,0,1,2-.21c-1,2.29-2.93,2.16-4.43,2.61-.1,2.58.26,2.91,2.56,2.23a9.25,9.25,0,0,0,2.42-1.14c2-1.36,2.67-3.29,1.77-5.06s-2.36-2.12-4.82-1.41C304.51,284.06,303.61,284.23,302.73,284.45Zm-94.8,18.31-3.17-.47a7.29,7.29,0,0,1-.4,2c-.25.47-.85.76-1.4,1.22l-.25,2,.45-.06a10,10,0,0,1,.52,2.29c0,1.54-.36,3.09-.36,4.63,0,1.82,1.61,2.87,3.88,2.71,1.65-.12,2-.63,1.74-2.87-1.95,0-2.27-.14-2.18-1.24.11-1.47.39-2.92.59-4.34,2.9,0,2.9,0,2.68-2.64l-2.26-.55Zm-12.56.83c-.72,3.72-1.41,7.32-2.13,11.05l3.1.58c1.38-2.85,0-7.44,5.29-7.41l.55-3.55-3.52.88C198.34,303.3,196.75,303.93,195.37,303.59Zm53,.57c.67,3.13,1.45,6.07,1.89,9,.27,1.87,1.06,2.16,2.6,1.6.32-.11.65-.2,1.12-.34-.31-1.54-.61-3-.87-4.45a3.28,3.28,0,0,1,1.8-3.89,1.67,1.67,0,0,0,.64-1.32,14.48,14.48,0,0,0-.64-2.71L252,304.5C251.14,302.5,249.77,304.15,248.37,304.16Z" transform="translate(-79.51 -54.45)"/><path class="cls-1" d="M124.92,180.41c.14-55.3,44.4-97.81,96-99.4,57.56-1.77,103.53,45.12,102.61,101-.88,53.65-44.1,98-99.12,98.13S124.94,235.69,124.92,180.41ZM227.45,84.65a96,96,0,0,0-8.39,191.77c51.11,3,99.58-36.79,100.84-94.39A95.86,95.86,0,0,0,227.45,84.65Z" transform="translate(-79.51 -54.45)"/><path class="cls-1" d="M109.26,179.16c2,1,4.07,2,6.16,2.83a2.22,2.22,0,0,1,1.49,2.34,2.25,2.25,0,0,1-1.28,2.46,37.65,37.65,0,0,0-5.95,3.61c1.3,0,2.61,0,3.91,0,1,0,2-.07,3-.13,2.27-.13,2.36,0,2.43,2.16.1,3,.1,2.91-2.87,3-4.91.15-9.82.34-14.72.5-2.41.08-2.26,0-2.58-2.25s.49-3.38,2.44-4.31c2.84-1.35,5.55-3,8.67-4.68-.83-.46-1.3-.76-1.8-1-2.82-1.32-5.65-2.61-8.46-3.94-1.26-.6-2.12-4.37-1.19-5.38a2.23,2.23,0,0,1,1.45-.47q8.17-.33,16.34-.58c1.94-.06,2.08.19,2.21,2.54.09,1.55,0,2.75-2.06,2.66-2.37-.11-4.74,0-7.11,0Z" transform="translate(-79.51 -54.45)"/><path class="cls-1" d="M336.05,149.16c2.61-.83,5.23-1.64,7.84-2.49,2.15-.7,2.17-.7,2.86,1.52.14.45.29.91.44,1.36a1.24,1.24,0,0,1-.94,1.78c-5.53,1.77-11.05,3.57-16.59,5.32a1.64,1.64,0,0,1-1.3-.21c-.92-.72-1.26-3.64-.6-4.64,1.87-2.86,3.77-5.7,5.65-8.55a5.1,5.1,0,0,0,.92-2.14l-7.39,2.35a2.9,2.9,0,0,1-3.95-3.4c.08-.47.82-1,1.36-1.16,5-1.68,10-3.32,15-4.88.82-.25,2.39-.38,2.56,0,.66,1.31,1.71,2.73.64,4.35-1.81,2.75-3.63,5.5-5.43,8.26-.49.74-1,1.5-1.42,2.26Z" transform="translate(-79.51 -54.45)"/><path class="cls-1" d="M113.12,145.41c3.17,1.12,5.79,2.11,8.46,3,1.48.47,2,1.21,1.26,2.64a9.9,9.9,0,0,0-.54,1.53,1.27,1.27,0,0,1-1.9,1c-5.41-1.93-10.84-3.84-16.25-5.76-.94-.33-1.25-.86-1-1.93a4.61,4.61,0,0,1,3.44-3.64c3.55-1,7-2.37,11-3.75-.92-.41-1.42-.66-1.93-.84-2.3-.84-4.6-1.71-6.94-2.46-1.13-.37-1.39-1-1-2l.13-.33c1-3.05,1-3.05,4.1-2,4.46,1.58,8.93,3.12,13.36,4.78.88.33,2.58.18,2.26,1.74s-.45,3.19-2.46,3.81c-3.55,1.09-7,2.4-10.53,3.63C114.26,144.86,114,145,113.12,145.41Z" transform="translate(-79.51 -54.45)"/><path class="cls-1" d="M350.06,166.8c.05,6.87-5.6,11.21-12.19,10.12-4.51-.75-7.16-3.38-7.84-7.89-.39-2.6-.64-5.23-1-7.84-.18-1.31.14-1.94,1.64-2.09,5.48-.57,10.95-1.26,16.42-2,1.26-.16,1.88.09,2,1.48C349.38,161.59,349.79,164.56,350.06,166.8ZM342.21,163c-1.25.14-2.5.25-3.74.44-4.23.64-4.35-.48-3.51,4.69a4.09,4.09,0,0,0,4.17,3.68c2.82.18,5.08-1,5.62-3.13a11.71,11.71,0,0,0,.05-3.55C344.63,162.78,344.55,162.74,342.21,163Z" transform="translate(-79.51 -54.45)"/><path class="cls-1" d="M310.09,115.64c-5-1.83-7.45-5.83-6.92-10.85a10.22,10.22,0,0,1,8.65-9,10.53,10.53,0,0,1,11.62,6.72,21.23,21.23,0,0,1,.76,4.74c.11.92-.4,1.36-1.32,1.14a11.5,11.5,0,0,1-2.9-.88c-.45-.26-.68-1.13-.77-1.75a5.63,5.63,0,0,0-6.53-4.93,5.51,5.51,0,0,0-4.34,6.59,4.77,4.77,0,0,0,6,3.8,30.74,30.74,0,0,0-2-2.49c-1.22-1.24-.22-1.87.61-2.58s1.59-1.62,2.67-.29c1.39,1.72,2.83,3.41,4.27,5.08a1.38,1.38,0,0,1-.2,2.28c-2,1.63-3.91,3.36-5.94,4.93-.66.5-2,1.09-2.35.8C310.42,118.22,309.1,117.32,310.09,115.64Z" transform="translate(-79.51 -54.45)"/><path class="cls-1" d="M176.21,72.2c-.85-1.73-1.59-3.23-2.31-4.74-.91-1.92-.87-1.86,1.94-3.33,1.47-.77,2.11-.27,2.75,1.07q3.43,7.23,7,14.37c.75,1.49.47,2.23-1.06,2.88-2.78,1.19-2.75,1.26-4.09-1.47l-.24-.48c-1.72-3.56-1.74-3.6-5.36-1.74-4.28,2.2-4.07,1-1.93,5.6,1.46,3.09,1.13,3.92-2.23,4.72a1.79,1.79,0,0,1-1.5-.77q-3.94-7.86-7.72-15.81c-.17-.37.34-1.06.54-1.59,0,0,.1-.06.15-.08,3.26-1.89,3.26-1.89,4.94,1.54,1.85,3.79,1.85,3.8,5.66,2,.81-.38,1.64-.73,2.41-1.18A5.63,5.63,0,0,0,176.21,72.2Z" transform="translate(-79.51 -54.45)"/><path class="cls-1" d="M106.33,154.13c-.48,2.85-.87,5.15-1.25,7.46-.17,1-.28,1.9,1.15,2.11S107.82,163,108,162c.27-1.65.56-3.31.79-5,.18-1.32,1-1.55,2.06-1.21s2.85-.3,2.56,1.84c-.24,1.84-.56,3.67-.85,5.51-.14.87,0,1.54,1,1.7s1.37-.43,1.51-1.3c.38-2.31.85-4.6,1.12-6.91.16-1.4.83-1.65,2.05-1.53,3,.31,3.19.51,2.69,3.56-.57,3.42-1.13,6.85-1.63,10.29-.22,1.49-.82,2-2.41,1.7-5.3-1-10.63-1.81-16-2.64-1.39-.21-2-.63-1.67-2.2.74-3.89,1.32-7.8,1.9-11.71.18-1.24.75-1.67,1.94-1.46a6.77,6.77,0,0,1,1.76.33A7.74,7.74,0,0,1,106.33,154.13Z" transform="translate(-79.51 -54.45)"/><path class="cls-1" d="M271.73,64.17c-.77,1.75-1.37,3.32-2.14,4.8s-.5,2.17,1,2.71a39.44,39.44,0,0,1,4.27,1.87c1,.51,1.65.33,2.08-.79a31.37,31.37,0,0,1,2-4.41,2,2,0,0,1,1.78-.73c3.47,1,3.55,1.27,2.14,4.5-2,4.61-4.1,9.19-6.09,13.82-.52,1.21-1.16,1.46-2.36,1-3.19-1.34-3.19-1.3-1.78-4.46,2.06-4.59,2.13-3.58-2.13-5.48-3.7-1.65-3.72-1.6-5.38,2.09l-.15.32c-1.16,2.6-3.08,3-5.1,1a1.78,1.78,0,0,1-.2-1.58c2.27-5.29,4.63-10.53,6.94-15.8.43-1,1-1.22,2-.76.7.34,1.46.56,2.12,1A5.07,5.07,0,0,1,271.73,64.17Z" transform="translate(-79.51 -54.45)"/><path class="cls-1" d="M203.35,76c-.22.18-.56.72-1,.86-4,1.18-8.06,2.29-12.09,3.43-1.07.31-1.67,0-2-1.11-1.47-5.37-3-10.72-4.54-16.07-.37-1.29-.11-2,1.31-2.34,3.82-1,7.62-2.1,11.4-3.23,1.27-.38,2-.06,2.21,1.24a4.7,4.7,0,0,0,.31,1c.76,1.67,0,2.36-1.58,2.74-2.1.5-4.14,1.22-6.23,1.73-1.12.28-1.49.79-1.18,1.92s1,1.18,1.92.88c1.6-.5,3.24-.89,4.83-1.4,1.43-.46,2.16,0,2.4,1.46.21,1.22,1.19,2.59-1,3-1.63.34-3.22.91-4.83,1.35-.92.25-1.54.58-1.22,1.74s1.15,1,2,.77l5.35-1.52C202.14,71.76,203.42,72.75,203.35,76Z" transform="translate(-79.51 -54.45)"/><path class="cls-1" d="M204,76.17c.17-.82.24-1.33.38-1.82,1.69-5.73,3.44-11.46,5.06-17.21.39-1.38,1.05-2,2.48-2a13.25,13.25,0,0,1,2-.16,2.61,2.61,0,0,1,1.73.88c3.15,5.9,6.2,11.84,9.51,18.22-1.45.17-2.66.22-3.82.47-1.53.33-2.09-.55-2.73-1.68a2.32,2.32,0,0,0-1.75-.82c-1.24,0-2.5.22-3.75.3-1.68.12-3.28.24-3.46,2.49a1.42,1.42,0,0,1-.94.92C207.21,76,205.73,76,204,76.17Zm11.91-8.81-2.45-5.06-.42.05-1.41,5.47Z" transform="translate(-79.51 -54.45)"/><path class="cls-1" d="M150.56,104.2a26.25,26.25,0,0,1-2.77,3.24,2.62,2.62,0,0,1-2.1.26,2.22,2.22,0,0,0-2.66.84,31.89,31.89,0,0,1-2.3,2.75c-1.1,1.18-1.91,2.32-.66,3.9a1.23,1.23,0,0,1,.07,1.16c-.92,1.27-1.94,2.47-3.17,4-1.75-3.29-3.28-6.17-4.8-9.06s-3.07-6-4.67-8.89a2.16,2.16,0,0,1,.62-2.87c.92-.89,1.4-2.56,3.24-2l18.39,6.07A5.27,5.27,0,0,1,150.56,104.2Zm-13.91,4.72,2.75-3.38-5.27-1.94-.23.43Z" transform="translate(-79.51 -54.45)"/><path class="cls-1" d="M322.43,138.58a28.91,28.91,0,0,1-2.12-4,2.65,2.65,0,0,1,.53-2.05,2,2,0,0,0,.18-2.62,33.11,33.11,0,0,1-1.73-3.15c-.71-1.5-1.49-2.71-3.52-2.19-.4.1-1.15-.39-1.45-.81-.74-1.07-1.31-2.26-2.09-3.67a17.77,17.77,0,0,1,2-.48c5.71-.72,11.42-1.4,17.13-2.12,1.37-.17,2.56-.26,3.31,1.33s1.85,2.86.16,4.77c-3.61,4.09-6.91,8.44-10.35,12.67C323.89,137,323.29,137.59,322.43,138.58ZM329,122.87c-1.32.12-2,.12-2.73.26-1,.2-1.9.49-2.85.75l1.5,3.08s.11,0,.45.16C326.43,125.9,327.55,124.59,329,122.87Z" transform="translate(-79.51 -54.45)"/><path class="cls-1" d="M331.14,178.08c1.55.75,2.72,1.31,3.87,1.88,4.72,2.34,9.39,4.76,14.16,7,2.1,1,1.16,2.59,1.24,4a2.12,2.12,0,0,1-1.79,2.42c-5.73,1.7-11.41,3.57-17.12,5.36-.53.17-1.11.23-1.93.4a34.71,34.71,0,0,1,.29-4.32,2.2,2.2,0,0,1,1.36-1.35,2.18,2.18,0,0,0,1.85-2.43,22.81,22.81,0,0,1,.27-3.4c.23-1.67.15-3.1-1.83-3.68a1.24,1.24,0,0,1-.68-.93C330.86,181.5,331,180,331.14,178.08Zm12,11.89,0-.5-5-2.39-.27,4.37Z" transform="translate(-79.51 -54.45)"/><path class="cls-1" d="M296.13,100.69a10.44,10.44,0,0,1-8.24-5.79c-1.69-3.21-1.05-6.29,1.07-9.08s4.32-5.44,6.46-8.17a1.31,1.31,0,0,1,2.12-.28c3,2.15,3,2.21.77,5-1.72,2.15-3.51,4.25-5.13,6.47s-1.22,4.27,1.08,5.85c1.93,1.33,3.74,1,5.51-1,1.93-2.29,3.72-4.7,5.65-7,.48-.57,1.56-1.4,1.85-1.23a14.92,14.92,0,0,1,3.08,2.6c.13.13-.22.88-.49,1.22-2.14,2.73-4.28,5.47-6.51,8.14A9,9,0,0,1,296.13,100.69Z" transform="translate(-79.51 -54.45)"/><path class="cls-1" d="M246.29,56.12l7.41,1.81c2.38.58,4.76,1.2,7.16,1.69,1.48.3,1.87,1.07,1.42,2.43a7.69,7.69,0,0,0-.33,1.4c-.17,1.2-.89,1.44-1.94,1.17s-2.1-.48-3.14-.77-1.53.08-1.77,1.12c-.91,3.91-1.91,7.79-2.79,11.7-.28,1.25-.85,1.59-2,1.25-3.7-1-3.54-.43-2.62-4.18.79-3.19,1.48-6.41,2.33-9.59.4-1.47,0-2.17-1.48-2.3a10.84,10.84,0,0,1-1.22-.3c-2.91-.66-3.51-2-2.05-4.63C245.46,56.53,246,56.32,246.29,56.12Z" transform="translate(-79.51 -54.45)"/><path class="cls-1" d="M123.77,113.17c-.34.61-.76,1.4-1.21,2.17C121,118,121,118,123.64,119.47c3,1.69,5.88,3.46,8.88,5.09,1.29.7,1.66,1.42.73,2.65a7.28,7.28,0,0,0-.7,1.25c-.55,1.14-1.24,1.41-2.42.7-3.29-2-6.67-3.77-9.94-5.76-1.37-.83-2.16-.63-2.75.81a7.28,7.28,0,0,1-.53.94c-1.55,2.75-2.69,2.95-5,.75a1.84,1.84,0,0,1-.23-1.69c2.44-4.39,5-8.74,7.47-13.09a1.5,1.5,0,0,1,.47-.53C120.51,110.06,123.77,111.93,123.77,113.17Z" transform="translate(-79.51 -54.45)"/><path class="cls-1" d="M231.7,69.9c2.7.24,5.2.54,7.7.65,1.36.06,1.83.58,1.65,1.87a6.59,6.59,0,0,1-.24,1.93c-.26.51-.93,1.17-1.39,1.15-4-.22-8-.59-12-.9-1-.09-1.44-.61-1.35-1.66q.72-8.5,1.36-17c.09-1.12.53-1.66,1.71-1.44a6.93,6.93,0,0,0,1.44.09c1.55-.05,2.08.61,1.93,2.2-.36,3.69-.57,7.39-.82,11.09C231.66,68.47,231.7,69.06,231.7,69.9Z" transform="translate(-79.51 -54.45)"/><path class="cls-1" d="M143.12,84.58a7,7,0,0,0,.71,1.64c2.43,3,4.93,5.86,7.32,8.85.93,1.15,1.62,1.28,2.74.23,1.47-1.4,3.12-2.6,4.66-3.94.91-.79,1.67-.87,2.35.23a3.08,3.08,0,0,0,.24.27c1.92,2.3,1.92,2.3-.44,4.25-2.58,2.14-5.19,4.24-7.73,6.43-1,.86-1.66.79-2.5-.25q-5.28-6.47-10.68-12.83c-.87-1-.76-1.77.31-2.52C140.91,86.38,141.66,85.72,143.12,84.58Z" transform="translate(-79.51 -54.45)"/><path class="cls-2" d="M233.67,310.51c0,4.51-3.34,7.61-8,7.56a7.5,7.5,0,0,1-7.63-7.62c0-4.48,3.44-7.67,8.18-7.62A7.32,7.32,0,0,1,233.67,310.51Zm-7.76,4.38a4.34,4.34,0,0,0,4.27-4.37,4.45,4.45,0,0,0-4.32-4.55,4.32,4.32,0,0,0-4.25,4.39A4.36,4.36,0,0,0,225.91,314.89Z" transform="translate(-79.51 -54.45)"/><path class="cls-2" d="M163.88,308.58c1.85-4.62,3.62-9,5.51-13.79l3.78,2.27a4.68,4.68,0,0,1,5.33,3,7,7,0,0,1-2.65,7.75c-2.4,1.47-4.81.89-7.2-1.83a12.92,12.92,0,0,0-.87,2.09c-.4,1.79-1.37,1.83-2.72,1.05C164.76,309,164.43,308.84,163.88,308.58Zm9-9.05a3.27,3.27,0,0,0-2.81,3.18,2.66,2.66,0,0,0,2.55,2.69A3.25,3.25,0,0,0,175.4,302,2.57,2.57,0,0,0,172.87,299.53Z" transform="translate(-79.51 -54.45)"/><path class="cls-2" d="M155.17,299.46l-2.06,3.75-2.94-1.64,7-13,3.06,2-.3.44c3.33,0,5.29,1.16,5.81,4.29a6.77,6.77,0,0,1-3.76,6.92C159.44,303.26,157.16,302.36,155.17,299.46Zm4.77-5.93a3.32,3.32,0,0,0-3,3.26,2.57,2.57,0,0,0,2.41,2.61,3.37,3.37,0,0,0,3-3.25A2.6,2.6,0,0,0,159.94,293.53Z" transform="translate(-79.51 -54.45)"/><path class="cls-2" d="M145.47,278.81c-2.52,1.28-2.5,1.27-3.77-.81a4.35,4.35,0,0,0-1.25-1.49,6,6,0,0,0-1.89-.45,5.42,5.42,0,0,0,0,1.93,14.51,14.51,0,0,0,1.5,2.23c1.64,2.45,1.63,4.62,0,6.21s-4.09,1.64-6.42.07a8.79,8.79,0,0,1-3.7-6.16l2.61-.52a24.72,24.72,0,0,0,2.45,3.72c.48.52,1.56.47,2.36.67a7.4,7.4,0,0,0-.29-2.24,30.35,30.35,0,0,0-1.78-2.68,4,4,0,0,1,.18-5,4.22,4.22,0,0,1,5-1.35A8.17,8.17,0,0,1,145.47,278.81Z" transform="translate(-79.51 -54.45)"/><path class="cls-2" d="M274.56,295.13l-.8,2.11a38.3,38.3,0,0,0-5.52,1.23c-.66.24-1.16,1.35-1.41,2.17a4.76,4.76,0,0,0,2.46,5.3c2,1,3.8.27,6.31-2.66l2.45,1.18a7.8,7.8,0,0,1-10.13,4.67,8,8,0,0,1-4-10.73C266,294.4,271.73,293.1,274.56,295.13Z" transform="translate(-79.51 -54.45)"/><path class="cls-2" d="M186.15,312.9a6.06,6.06,0,0,1-6.26-6,5.83,5.83,0,0,1,6.06-5.79,6.07,6.07,0,0,1,6.25,6.05A5.8,5.8,0,0,1,186.15,312.9Zm-.11-3a3,3,0,0,0,2.85-3.06,2.84,2.84,0,0,0-2.9-2.79,3,3,0,0,0-2.74,3A2.8,2.8,0,0,0,186,309.91Z" transform="translate(-79.51 -54.45)"/><path class="cls-2" d="M313.43,280.48c1.87.7,3.48.25,3.94-1.32.52-1.78,1.59-1.55,2.83-1.42.6,3.93-3.68,7.18-7.64,5.9a6.59,6.59,0,0,1-4.12-5.64,5.7,5.7,0,0,1,3.36-5.28,5.76,5.76,0,0,1,6.41,1.48c.78.78,1,1.34,0,2.15C316.58,277.59,315.12,279,313.43,280.48Zm1.71-4.55c-1-.9-2-1.05-2.9-.14a1.94,1.94,0,0,0-.28,2.89c.4-.31.72-.55,1-.81C313.69,277.25,314.38,276.61,315.14,275.93Z" transform="translate(-79.51 -54.45)"/><path class="cls-2" d="M279.05,297.87l-1.72-1.75a8.25,8.25,0,0,1,5.34-3.5c2.13-.48,3.65.29,4.74,2.33s2,4.08,3.15,6.49c-1.13.35-2.14.61-3.12,1a3.24,3.24,0,0,0-1.16.82c-1.88,2-4.73,2.17-6.18.42a3.42,3.42,0,0,1,.63-5.19,24.87,24.87,0,0,1,3.6-1.84C283.36,295.1,282.8,295.21,279.05,297.87Zm7.69,2.14c-.95-.67-1.55-1.3-1.73-1.19a23,23,0,0,0-2.55,1.89c.4.42,1,1.28,1.17,1.2A24.2,24.2,0,0,0,286.74,300Z" transform="translate(-79.51 -54.45)"/><path class="cls-2" d="M152.23,285.61l2.79,1.83c-1,1.5-1.88,2.94-2.81,4.36-.75,1.16-1.47,2.34-2.3,3.43-.42.56-1.3,1.46-1.54,1.34A7.15,7.15,0,0,1,146,294.4,4.6,4.6,0,0,1,141.8,292c-1-1.8-.11-3.33.89-4.82,1.19-1.78,2.36-3.57,3.62-5.48,1,.65,1.82,1.2,2.83,1.87l-3.29,5c-.67,1-1.19,2.06.13,3s2.19.1,2.92-1C149.94,289,151,287.39,152.23,285.61Z" transform="translate(-79.51 -54.45)"/><path class="cls-2" d="M298.7,295.27a4,4,0,0,1-3.61,3.23c-1.89.19-3-.87-3.9-2.34-1.19-2-2.39-4-3.68-6.1l2.89-1.73c1.09,1.77,2.11,3.44,3.14,5.1.64,1,1.38,1.94,2.73,1.15s1.05-1.93.35-3.06c-1-1.62-2-3.26-3.05-5.08l2.86-1.79c1.89,3.1,3.7,6,5.45,9a1.24,1.24,0,0,1-.29,1.14C300.7,295.1,300.05,296.64,298.7,295.27Z" transform="translate(-79.51 -54.45)"/><path class="cls-2" d="M242.66,305.12c.78-.13,1.25-.18,1.71-.28,1.17-.26,1.73.08,1.85,1.4.23,2.62.7,5.21,1,7.83.07.62-.16,1.78-.39,1.82-1,.16-2.21,1-3-.51a4.13,4.13,0,0,1-4.8,1.38c-1.8-.59-2.21-2.19-2.43-3.86-.28-2.24-.57-4.47-.88-6.84l3.29-.45c.29,2.08.58,4,.83,5.95.15,1.27.63,2.32,2.09,2.12s1.77-1.35,1.57-2.7C243.16,309.1,242.93,307.21,242.66,305.12Z" transform="translate(-79.51 -54.45)"/><path class="cls-2" d="M302.73,284.45c.88-.22,1.78-.39,2.66-.64,2.46-.71,4-.28,4.82,1.41s.27,3.7-1.77,5.06a9.25,9.25,0,0,1-2.42,1.14c-2.3.68-2.66.35-2.56-2.23,1.5-.45,3.41-.32,4.43-2.61a18,18,0,0,0-2,.21c-.75.17-1.48.47-2.23.65a3,3,0,0,1-3.58-1.36,3.13,3.13,0,0,1,.19-4,15.31,15.31,0,0,1,3.85-2.43c.63-.32,1.6-.53,1.76.73.12.93.25,1.72-1.11,2a9.48,9.48,0,0,0-2.46,1.24Z" transform="translate(-79.51 -54.45)"/><path class="cls-2" d="M207.93,302.76l-.16,2.65L210,306c.22,2.62.22,2.62-2.68,2.64-.2,1.42-.48,2.87-.59,4.34-.09,1.1.23,1.24,2.18,1.24.22,2.24-.09,2.75-1.74,2.87-2.27.16-3.87-.89-3.88-2.71,0-1.54.33-3.09.36-4.63a10,10,0,0,0-.52-2.29l-.45.06.25-2c.55-.46,1.15-.75,1.4-1.22a7.29,7.29,0,0,0,.4-2Z" transform="translate(-79.51 -54.45)"/><path class="cls-2" d="M195.37,303.59c1.38.34,3-.29,3.29,1.55l3.52-.88-.55,3.55c-5.3,0-3.91,4.56-5.29,7.41l-3.1-.58C194,310.91,194.65,307.31,195.37,303.59Z" transform="translate(-79.51 -54.45)"/><path class="cls-2" d="M248.37,304.16c1.4,0,2.77-1.66,3.62.34l2.92-2.4a14.48,14.48,0,0,1,.64,2.71,1.67,1.67,0,0,1-.64,1.32,3.28,3.28,0,0,0-1.8,3.89c.26,1.46.56,2.91.87,4.45-.47.14-.8.23-1.12.34-1.54.56-2.33.27-2.6-1.6C249.82,310.23,249,307.29,248.37,304.16Z" transform="translate(-79.51 -54.45)"/><path class="cls-2" d="M227.45,84.65A95.86,95.86,0,0,1,319.9,182c-1.26,57.6-49.73,97.37-100.84,94.39a96,96,0,0,1,8.39-191.77Zm34.87,64.66c-.23-7.89-1.22-15.86-4.18-23.41-3.58-9.15-8.79-17.17-17.32-22.55s-17.19-5.93-26.21-1.79c-6.21,2.85-10.94,7.53-14.71,13.13-5.72,8.48-8.52,18-9.49,28.12a66.79,66.79,0,0,0,3,27.3c3.28,10.14,8.71,18.77,17.75,24.77a25.9,25.9,0,0,0,18.63,4.38c8.4-1.27,15-5.88,20.2-12.38C258.74,176,261.83,163.15,262.32,149.31Zm-38.46,79.93c0-1.48,0-2.78,0-4.08.11-4.56-.71-8.84-3.74-12.44a30.51,30.51,0,0,0-10.19-8.41,109.6,109.6,0,0,0-11.36-4.45,26.67,26.67,0,0,1-9.66-5.35c-2.49-2.25-5.13-4.34-7.72-6.47-1.76-1.45-3.37-1.61-4.7-.52s-1.42,2.59,0,4.52a30.34,30.34,0,0,0,4.88,5.48c3.25,2.71,6.76,5.14,10.18,7.65.93.68,1.91,1.34,1.06,2.58s-1.84.7-2.82.06c-1.2-.79-2.46-1.49-3.63-2.32-6.2-4.43-11.69-9.38-15-16.59-2.52-5.54-5.89-10.7-8.93-16-1-1.79-2.46-2.21-4.09-1.43a3.06,3.06,0,0,0-1.45,4c.09.29.2.57.3.85,3.9,10.37,7.82,20.74,11.68,31.13a12.86,12.86,0,0,0,8,7.91c6.74,2.52,13.44,5.12,20.16,7.71a11.18,11.18,0,0,1,5.82,5.11,2.44,2.44,0,0,0,1.73,1c4.38.08,8.75,0,13.13,0Zm5,0c6.44,0,12.91,0,19.38,0a1.83,1.83,0,0,0,1.26-.88,11.83,11.83,0,0,1,6.27-5.38c5.6-2.12,11.19-4.29,16.78-6.43,1.4-.54,2.82-1,4.19-1.62a11.83,11.83,0,0,0,6.61-6.75q6.12-16.21,12.15-32.46c.73-2,.15-3.53-1.44-4.26s-3-.26-4,1.58c-3.26,5.72-6.73,11.35-9.61,17.26-4,8.32-11.13,13.28-18.6,17.92-.44.27-1.63-.13-2.07-.59-.26-.29.12-1.37.45-2,.24-.41.89-.57,1.32-.9,3.33-2.53,6.8-4.92,9.93-7.67a31.66,31.66,0,0,0,4.84-5.94,2.44,2.44,0,0,0-.55-3.66,3.18,3.18,0,0,0-4.14.23c-1.39,1.13-2.85,2.21-4.14,3.46A41.65,41.65,0,0,1,250,201.27a40,40,0,0,0-9.78,4.41C231.62,211.05,226.81,218.44,228.9,229.24Zm-44.32,17.65.44-.1c1.19,2.39,2.43,4.77,3.56,7.19a2.57,2.57,0,0,0,2.46,1.65,3.12,3.12,0,0,0,3.53-2.24c1-2.26,2.18-4.4,3.28-6.59l.43.15c0,2.37,0,4.75,0,7.12.05,4.31-.58,3.66,3.86,3.8,1.62.06,2.21-.42,2.19-2.11-.1-5.75-.05-11.5-.06-17.26,0-4.13,0-4.07-4.2-4.15a2.62,2.62,0,0,0-2.77,1.73c-1.18,2.54-2.49,5-3.76,7.55-.64,1.25-1.31,2.49-2.18,4.13-1.73-3.45-3.25-6.47-4.78-9.49-2.35-4.66-1.08-3.72-6.24-3.91-1.49-.06-1.83.5-1.81,1.86.05,5.87,0,11.75,0,17.62,0,4.38-1,4,4.13,4,1.55,0,1.93-.6,1.89-2C184.52,252.86,184.58,249.88,184.58,246.89Zm54.63-.74h0c0-3.36,0-6.72,0-10.07,0-1.2-.32-1.7-1.62-1.72-4.42-.06-4.42-.11-4.42,4.28v.18c0,4.62,0,4.62-4.52,4.62-5.07,0-5,0-5.08-5.14,0-4.64.56-3.75-3.88-4-1.7-.07-2.16.53-2.14,2.15.08,5.75,0,11.51,0,17.27,0,4.59-.88,4,4.28,4.09,1.22,0,1.75-.4,1.71-1.66,0-1.86,0-3.72,0-5.58,0-1,.41-1.55,1.49-1.52s2.4,0,3.6,0c5.18,0,4.41-.58,4.47,4.51s-.66,4.08,4.33,4.28c1.22,0,1.72-.4,1.7-1.66C239.18,252.87,239.21,249.51,239.21,246.15Zm13-3.56H252c.16,2.68,0,5.43.56,8,1.16,5.4,6.08,8.41,11.91,7.67,5.65-.71,9.26-4.66,9.32-10.24,0-3.41,0-6.82,0-10.24s0-3.42-3.43-3.43c-2.58,0-2.58,0-2.58,2.66,0,3.59.07,7.19,0,10.78-.08,3-1.83,4.63-4.78,4.64s-4.54-1.42-4.69-4.48-.09-6.23-.15-9.34c-.11-5.09.89-4.13-4.4-4.28-1.18,0-1.62.43-1.6,1.57C252.19,238.16,252.17,240.37,252.17,242.59Zm-6.36,8.23a3.8,3.8,0,0,0,0,7.59,3.8,3.8,0,1,0,0-7.59Zm-31.06,3.77a3.79,3.79,0,0,0-3.77-3.74,3.66,3.66,0,0,0-3.79,3.86,3.82,3.82,0,0,0,3.64,3.69A3.9,3.9,0,0,0,214.75,254.59Z" transform="translate(-79.51 -54.45)"/><path class="cls-2" d="M342.21,163c2.34-.22,2.42-.18,2.59,2.13a11.71,11.71,0,0,1-.05,3.55c-.54,2.16-2.8,3.31-5.62,3.13a4.09,4.09,0,0,1-4.17-3.68c-.84-5.17-.72-4.05,3.51-4.69C339.71,163.21,341,163.1,342.21,163Z" transform="translate(-79.51 -54.45)"/><path class="cls-2" d="M215.91,67.36l-4.28.46L213,62.35l.42-.05Z" transform="translate(-79.51 -54.45)"/><path class="cls-2" d="M136.65,108.92,133.9,104l.23-.43,5.27,1.94Z" transform="translate(-79.51 -54.45)"/><path class="cls-2" d="M329,122.87c-1.46,1.72-2.58,3-3.63,4.25-.34-.12-.43-.12-.45-.16l-1.5-3.08c.95-.26,1.89-.55,2.85-.75C327,123,327.69,123,329,122.87Z" transform="translate(-79.51 -54.45)"/><path class="cls-2" d="M343.1,190l-5.25,1.48.27-4.37,5,2.39Z" transform="translate(-79.51 -54.45)"/><path class="cls-1" d="M225.91,314.89a4.36,4.36,0,0,1-4.3-4.53,4.32,4.32,0,0,1,4.25-4.39,4.45,4.45,0,0,1,4.32,4.55A4.34,4.34,0,0,1,225.91,314.89Z" transform="translate(-79.51 -54.45)"/><path class="cls-1" d="M172.87,299.53A2.57,2.57,0,0,1,175.4,302a3.25,3.25,0,0,1-2.79,3.38,2.66,2.66,0,0,1-2.55-2.69A3.27,3.27,0,0,1,172.87,299.53Z" transform="translate(-79.51 -54.45)"/><path class="cls-1" d="M159.94,293.53a2.6,2.6,0,0,1,2.42,2.62,3.37,3.37,0,0,1-3,3.25,2.57,2.57,0,0,1-2.41-2.61A3.32,3.32,0,0,1,159.94,293.53Z" transform="translate(-79.51 -54.45)"/><path class="cls-1" d="M186,309.91a2.8,2.8,0,0,1-2.79-2.87,3,3,0,0,1,2.74-3,2.84,2.84,0,0,1,2.9,2.79A3,3,0,0,1,186,309.91Z" transform="translate(-79.51 -54.45)"/><path class="cls-1" d="M315.14,275.93c-.76.68-1.45,1.32-2.15,1.94-.31.26-.63.5-1,.81a1.94,1.94,0,0,1,.28-2.89C313.18,274.88,314.12,275,315.14,275.93Z" transform="translate(-79.51 -54.45)"/><path class="cls-1" d="M286.74,300a24.2,24.2,0,0,1-3.11,1.9c-.19.08-.77-.78-1.17-1.2a23,23,0,0,1,2.55-1.89C285.19,298.71,285.79,299.34,286.74,300Z" transform="translate(-79.51 -54.45)"/><path d="M262.32,149.31c-.49,13.84-3.58,26.67-12.32,37.57-5.22,6.5-11.8,11.11-20.2,12.38a25.9,25.9,0,0,1-18.63-4.38c-9-6-14.47-14.63-17.75-24.77a66.79,66.79,0,0,1-3-27.3c1-10.13,3.77-19.64,9.49-28.12,3.77-5.6,8.5-10.28,14.71-13.13,9-4.14,17.82-3.5,26.21,1.79s13.74,13.4,17.32,22.55C261.1,133.45,262.09,141.42,262.32,149.31Zm-33.23,44.4a10.53,10.53,0,0,0,1.41-.08,22.58,22.58,0,0,0,10.23-5,42.91,42.91,0,0,0,13.21-20.56c4.58-14.9,3.94-29.55-2.38-43.83-3-6.85-7.4-12.74-14-16.67a19.63,19.63,0,0,0-8.49-3.1Zm-5.62.37V117.76a9.64,9.64,0,0,1-7,2.09c-3.8-.37-6.27,1.54-8,4.67-.86,1.57-1.56,3.24-2.31,4.87a10.35,10.35,0,0,1-7.66,6.16,2.07,2.07,0,0,0-1.93,1.91c-2.55,14.08-1,27.6,6,40.2,3.4,6.15,7.83,11.53,14.56,14.38C219.17,192.9,221.36,193.41,223.47,194.08Zm-.78-89.25c-8.41-.41-24.36,16.45-23.6,24.89a9.52,9.52,0,0,0,3.51-5.08c2.48-6.76,7-10.06,14.17-10.13a5.73,5.73,0,0,0,4.6-2.35C223.17,110,222.74,107.45,222.69,104.83Z" transform="translate(-79.51 -54.45)"/><path d="M223.86,229.24h-6.31c-4.38,0-8.75,0-13.13,0a2.44,2.44,0,0,1-1.73-1,11.18,11.18,0,0,0-5.82-5.11c-6.72-2.59-13.42-5.19-20.16-7.71a12.86,12.86,0,0,1-8-7.91C164.83,197,160.91,186.67,157,176.3c-.1-.28-.21-.56-.3-.85a3.06,3.06,0,0,1,1.45-4c1.63-.78,3.06-.36,4.09,1.43,3,5.3,6.41,10.46,8.93,16,3.28,7.21,8.77,12.16,15,16.59,1.17.83,2.43,1.53,3.63,2.32,1,.64,2,1.15,2.82-.06s-.13-1.9-1.06-2.58c-3.42-2.51-6.93-4.94-10.18-7.65a30.34,30.34,0,0,1-4.88-5.48c-1.41-1.93-1.24-3.51,0-4.52s2.94-.93,4.7.52c2.59,2.13,5.23,4.22,7.72,6.47a26.67,26.67,0,0,0,9.66,5.35,109.6,109.6,0,0,1,11.36,4.45,30.51,30.51,0,0,1,10.19,8.41c3,3.6,3.85,7.88,3.74,12.44C223.83,226.46,223.86,227.76,223.86,229.24Z" transform="translate(-79.51 -54.45)"/><path d="M228.9,229.24c-2.09-10.8,2.72-18.19,11.27-23.56a40,40,0,0,1,9.78-4.41,41.65,41.65,0,0,0,17.54-10.12c1.29-1.25,2.75-2.33,4.14-3.46a3.18,3.18,0,0,1,4.14-.23,2.44,2.44,0,0,1,.55,3.66,31.66,31.66,0,0,1-4.84,5.94c-3.13,2.75-6.6,5.14-9.93,7.67-.43.33-1.08.49-1.32.9-.33.59-.71,1.67-.45,2,.44.46,1.63.86,2.07.59,7.47-4.64,14.56-9.6,18.6-17.92,2.88-5.91,6.35-11.54,9.61-17.26,1-1.84,2.45-2.31,4-1.58s2.17,2.29,1.44,4.26q-6,16.23-12.15,32.46a11.83,11.83,0,0,1-6.61,6.75c-1.37.6-2.79,1.08-4.19,1.62-5.59,2.14-11.18,4.31-16.78,6.43a11.83,11.83,0,0,0-6.27,5.38,1.83,1.83,0,0,1-1.26.88C241.81,229.26,235.34,229.24,228.9,229.24Z" transform="translate(-79.51 -54.45)"/><path class="cls-1" d="M184.58,246.89c0,3-.06,6,0,9,0,1.43-.34,2-1.89,2-5.17-.07-4.08.35-4.13-4-.07-5.87,0-11.75,0-17.62,0-1.36.32-1.92,1.81-1.86,5.16.19,3.89-.75,6.24,3.91,1.53,3,3,6,4.78,9.49.87-1.64,1.54-2.88,2.18-4.13,1.27-2.51,2.58-5,3.76-7.55a2.62,2.62,0,0,1,2.77-1.73c4.2.08,4.2,0,4.2,4.15,0,5.76,0,11.51.06,17.26,0,1.69-.57,2.17-2.19,2.11-4.44-.14-3.81.51-3.86-3.8,0-2.37,0-4.75,0-7.12l-.43-.15c-1.1,2.19-2.33,4.33-3.28,6.59a3.12,3.12,0,0,1-3.53,2.24,2.57,2.57,0,0,1-2.46-1.65c-1.13-2.42-2.37-4.8-3.56-7.19Z" transform="translate(-79.51 -54.45)"/><path class="cls-1" d="M239.21,246.15c0,3.36,0,6.72,0,10.08,0,1.26-.48,1.7-1.7,1.66-5-.2-4.26.74-4.33-4.28s.71-4.47-4.47-4.51c-1.2,0-2.4,0-3.6,0s-1.5.48-1.49,1.52c0,1.86-.07,3.72,0,5.58,0,1.26-.49,1.67-1.71,1.66-5.16-.06-4.24.5-4.28-4.09,0-5.76,0-11.52,0-17.27,0-1.62.44-2.22,2.14-2.15,4.44.2,3.85-.69,3.88,4,0,5.14,0,5.14,5.08,5.14,4.52,0,4.52,0,4.52-4.62v-.18c0-4.39,0-4.34,4.42-4.28,1.3,0,1.64.52,1.62,1.72-.05,3.35,0,6.71,0,10.07Z" transform="translate(-79.51 -54.45)"/><path class="cls-1" d="M252.17,242.59c0-2.22,0-4.43,0-6.65,0-1.14.42-1.6,1.6-1.57,5.29.15,4.29-.81,4.4,4.28.06,3.11,0,6.23.15,9.34s1.74,4.49,4.69,4.48,4.7-1.61,4.78-4.64c.11-3.59,0-7.19,0-10.78,0-2.66,0-2.66,2.58-2.66,3.43,0,3.43,0,3.43,3.43s0,6.83,0,10.24c-.06,5.58-3.67,9.53-9.32,10.24-5.83.74-10.75-2.27-11.91-7.67-.56-2.6-.4-5.35-.56-8Z" transform="translate(-79.51 -54.45)"/><path d="M245.81,250.82a3.8,3.8,0,1,1,0,7.59,3.8,3.8,0,0,1,0-7.59Z" transform="translate(-79.51 -54.45)"/><path d="M214.75,254.59a3.9,3.9,0,0,1-3.92,3.81,3.82,3.82,0,0,1-3.64-3.69,3.66,3.66,0,0,1,3.79-3.86A3.79,3.79,0,0,1,214.75,254.59Z" transform="translate(-79.51 -54.45)"/><path class="cls-2" d="M229.09,193.71V104.5a19.63,19.63,0,0,1,8.49,3.1c6.58,3.93,10.95,9.82,14,16.67,6.32,14.28,7,28.93,2.38,43.83a42.91,42.91,0,0,1-13.21,20.56,22.58,22.58,0,0,1-10.23,5A10.53,10.53,0,0,1,229.09,193.71Z" transform="translate(-79.51 -54.45)"/><path class="cls-2" d="M223.47,194.08c-2.11-.67-4.3-1.18-6.34-2-6.73-2.85-11.16-8.23-14.56-14.38-7-12.6-8.52-26.12-6-40.2a2.07,2.07,0,0,1,1.93-1.91,10.35,10.35,0,0,0,7.66-6.16c.75-1.63,1.45-3.3,2.31-4.87,1.71-3.13,4.18-5,8-4.67a9.64,9.64,0,0,0,7-2.09Z" transform="translate(-79.51 -54.45)"/><path class="cls-2" d="M222.69,104.83c.05,2.62.48,5.13-1.32,7.33a5.73,5.73,0,0,1-4.6,2.35c-7.16.07-11.69,3.37-14.17,10.13a9.52,9.52,0,0,1-3.51,5.08C198.33,121.28,214.28,104.42,222.69,104.83Z" transform="translate(-79.51 -54.45)"/></svg>