<svg id="Layer_1" data-name="Layer 1" xmlns="http://www.w3.org/2000/svg" viewBox="0 0 1088 667.61"><defs><style>.cls-1{fill:#f2f2f2;}.cls-2{opacity:0.1;}.cls-2,.cls-8{isolation:isolate;}.cls-3{fill:#3f3d56;}.cls-4{fill:#ff6584;}.cls-5{fill:#2f2e41;}.cls-6{fill:#6c63ff;}.cls-7{fill:#a8a8a8;}.cls-8{opacity:0.2;}.cls-9{fill:#fff;}.cls-10{fill:#f7f7f7;}</style></defs><title>undraw_docusaurus_mountain</title><g id="Group_12" data-name="Group 12"><g id="Group_11" data-name="Group 11"><path id="Path_84" data-name="Path 84" class="cls-1" d="M973.35,531c-21.11,50.86-49.82,84.55-82.07,106a186.06,186.06,0,0,1-29,15.76c-58.69,25.48-124.37,18.72-176,5.27a561.91,561.91,0,0,0-109.85-17.38q-15.79-.88-31.63-.88-24.4,0-48.8,2.27c-105.71,9.72-267.86-8.49-339.2-189.19L335.35,20.36l66.44,213.38L423,301.85l58.43-100.31,30.17-51.8L649,346.83l38.83-107.31L956.69,514l15,15.3Z" transform="translate(0 -20.36)"/><path id="Path_85" data-name="Path 85" class="cls-2" d="M302,283l26-57,36,83-31-60Z" transform="translate(0 -20.36)"/><path id="Path_86" data-name="Path 86" class="cls-2" d="M554.5,647.8q-15-.67-30-.67L409,391.17Z" transform="translate(0 -20.36)"/><path id="Path_87" data-name="Path 87" class="cls-2" d="M464.41,315.19,493,293,623,443,491,315Z" transform="translate(0 -20.36)"/><path id="Path_88" data-name="Path 88" class="cls-2" d="M852.79,645A192,192,0,0,1,825.33,657L623.2,425.23Z" transform="translate(0 -20.36)"/><circle id="Ellipse_11" data-name="Ellipse 11" class="cls-1" cx="482" cy="81.61" r="3"/><circle id="Ellipse_12" data-name="Ellipse 12" class="cls-1" cx="399" cy="184.61" r="3"/><circle id="Ellipse_13" data-name="Ellipse 13" class="cls-1" cx="602" cy="202.61" r="2"/><circle id="Ellipse_14" data-name="Ellipse 14" class="cls-1" cx="182" cy="247.61" r="2"/><circle id="Ellipse_15" data-name="Ellipse 15" class="cls-1" cx="614" cy="78.61" r="2"/><circle id="Ellipse_16" data-name="Ellipse 16" class="cls-1" cx="738" cy="174.61" r="2"/><circle id="Ellipse_17" data-name="Ellipse 17" class="cls-1" cx="860" cy="326.61" r="2"/><path id="Path_89" data-name="Path 89" class="cls-1" d="M306,121.22h-2.76v-2.76h-1.48v2.76H299v1.48h2.76v2.76h1.48V122.7H306Z" transform="translate(0 -20.36)"/><path id="Path_90" data-name="Path 90" class="cls-1" d="M848,424.22h-2.76v-2.76h-1.48v2.76H841v1.48h2.76v2.76h1.48V425.7H848Z" transform="translate(0 -20.36)"/><path id="Path_91" data-name="Path 91" class="cls-3" d="M1088,614c0,16.57-243.56,74-544,74S0,630.53,0,614s243.56,14,544,14S1088,597.39,1088,614Z" transform="translate(0 -20.36)"/><path id="Path_92" data-name="Path 92" class="cls-2" d="M1088,614c0,16.57-243.56,74-544,74S0,630.53,0,614s243.56,14,544,14S1088,597.39,1088,614Z" transform="translate(0 -20.36)"/><ellipse id="Ellipse_18" data-name="Ellipse 18" class="cls-3" cx="544" cy="593.61" rx="544" ry="30"/><path id="Path_93" data-name="Path 93" class="cls-4" d="M568,572c0,33.14-14.78,24-33,24s-33,9.14-33-24,33-96,33-96S568,538.82,568,572Z" transform="translate(0 -20.36)"/><path id="Path_94" data-name="Path 94" class="cls-2" d="M550,584.64c0,15.06-6.72,10.91-15,10.91s-15,4.15-15-10.91S535,541,535,541,550,569.58,550,584.64Z" transform="translate(0 -20.36)"/><path id="Rectangle_97" data-name="Rectangle 97" class="cls-5" d="M498,605h74a9,9,0,0,1,9,9h0a9,9,0,0,1-9,9H498a9,9,0,0,1-9-9h0A9,9,0,0,1,498,605Z" transform="translate(0 -20.36)"/><path id="Rectangle_98" data-name="Rectangle 98" class="cls-5" d="M498,587h74a9,9,0,0,1,9,9h0a9,9,0,0,1-9,9H498a9,9,0,0,1-9-9h0A9,9,0,0,1,498,587Z" transform="translate(0 -20.36)"/><path id="Path_95" data-name="Path 95" class="cls-3" d="M137,490.53c0,55.34,34.72,100.12,77.63,100.12" transform="translate(0 -20.36)"/><path id="Path_96" data-name="Path 96" class="cls-6" d="M214.63,590.65c0-56,38.74-101.25,86.62-101.25" transform="translate(0 -20.36)"/><path id="Path_97" data-name="Path 97" class="cls-6" d="M165.12,495.55c0,52.57,22.14,95.1,49.5,95.1" transform="translate(0 -20.36)"/><path id="Path_98" data-name="Path 98" class="cls-3" d="M214.63,590.65c0-71.51,44.78-129.37,100.12-129.37" transform="translate(0 -20.36)"/><path id="Path_99" data-name="Path 99" class="cls-7" d="M198.3,591.36s11-.34,14.33-2.7,16.93-5.18,17.75-1.4,16.55,18.85,4.12,19-28.88-1.94-32.19-4S198.3,591.36,198.3,591.36Z" transform="translate(0 -20.36)"/><path id="Path_100" data-name="Path 100" class="cls-8" d="M234.72,604.89c-12.43.1-28.88-1.94-32.19-3.95-2.53-1.54-3.53-7.05-3.87-9.59h-.37s.7,8.88,4,10.9,19.76,4,32.19,4c3.59,0,4.83-1.3,4.76-3.2C238.76,604.16,237.39,604.87,234.72,604.89Z" transform="translate(0 -20.36)"/><path id="Path_101" data-name="Path 101" class="cls-3" d="M721.43,527.06c0,38,23.86,68.8,53.34,68.8" transform="translate(0 -20.36)"/><path id="Path_102" data-name="Path 102" class="cls-6" d="M774.77,595.86c0-38.45,26.62-69.57,59.52-69.57" transform="translate(0 -20.36)"/><path id="Path_103" data-name="Path 103" class="cls-6" d="M740.76,530.51c0,36.12,15.21,65.35,34,65.35" transform="translate(0 -20.36)"/><path id="Path_104" data-name="Path 104" class="cls-3" d="M774.77,595.86c0-49.14,30.77-88.9,68.8-88.9" transform="translate(0 -20.36)"/><path id="Path_105" data-name="Path 105" class="cls-7" d="M763.55,596.35s7.56-.23,9.84-1.86,11.64-3.56,12.2-1,11.37,13,2.83,13-19.84-1.33-22.12-2.71S763.55,596.35,763.55,596.35Z" transform="translate(0 -20.36)"/><path id="Path_106" data-name="Path 106" class="cls-8" d="M788.57,605.64c-8.54.07-19.84-1.33-22.12-2.71-1.73-1.06-2.42-4.84-2.65-6.59h-.25s.48,6.1,2.75,7.49,13.58,2.78,22.12,2.71c2.47,0,3.32-.9,3.27-2.2C791.35,605.14,790.41,605.63,788.57,605.64Z" transform="translate(0 -20.36)"/><path id="Path_107" data-name="Path 107" class="cls-7" d="M893.81,618.7s11.36-1.73,14.5-4.59,16.89-7.49,18.22-3.67,19.49,17.45,6.63,19.11-30.15,1.61-33.83-.07S893.81,618.7,893.81,618.7Z" transform="translate(0 -20.36)"/><path id="Path_108" data-name="Path 108" class="cls-8" d="M933.23,628.15c-12.86,1.66-30.15,1.61-33.84-.06-2.8-1.28-4.53-6.86-5.2-9.45l-.38.06s1.84,9.11,5.52,10.78,21,1.73,33.83.07c3.72-.48,4.84-2,4.53-3.91C937.32,626.89,936,627.8,933.23,628.15Z" transform="translate(0 -20.36)"/><path id="Path_109" data-name="Path 109" class="cls-7" d="M614.26,617.88s9.59-1.46,12.24-3.87,14.25-6.32,15.37-3.1,16.45,14.73,5.6,16.13S622,628.39,618.92,627,614.26,617.88,614.26,617.88Z" transform="translate(0 -20.36)"/><path id="Path_110" data-name="Path 110" class="cls-8" d="M647.52,625.86c-10.85,1.4-25.44,1.35-28.55-.06-2.37-1.07-3.83-5.79-4.39-8l-.32.06s1.55,7.68,4.65,9.1,17.7,1.45,28.56,0c3.13-.4,4.08-1.65,3.82-3.3C651,624.79,649.86,625.56,647.52,625.86Z" transform="translate(0 -20.36)"/><path id="Path_111" data-name="Path 111" class="cls-7" d="M122.39,613.09s7.46-1.14,9.53-3,11.1-4.92,12-2.4,12.8,11.46,4.35,12.55-19.81,1.06-22.23-.05S122.39,613.09,122.39,613.09Z" transform="translate(0 -20.36)"/><path id="Path_112" data-name="Path 112" class="cls-8" d="M148.29,619.3c-8.45,1.09-19.82,1.06-22.23,0-1.85-.84-3-4.51-3.42-6.21l-.25,0s1.2,6,3.62,7.08,13.78,1.14,22.23.05c2.44-.32,3.18-1.29,3-2.57C151,618.47,150.1,619.07,148.29,619.3Z" transform="translate(0 -20.36)"/><path id="Path_113" data-name="Path 113" class="cls-2" d="M383.7,601.32c0,30.22-42.12,20.87-93.7,20.87s-93.07,9.35-93.07-20.87,42.11-36.8,93.69-36.8S383.7,571.1,383.7,601.32Z" transform="translate(0 -20.36)"/><path id="Path_114" data-name="Path 114" class="cls-3" d="M383.7,593.88c0,30.22-42.12,20.87-93.7,20.87s-93.07,9.35-93.07-20.87,42.11-36.8,93.69-36.8S383.7,563.66,383.7,593.88Z" transform="translate(0 -20.36)"/><path d="M660.31,204.89c-1.69,46.92-12.39,90.44-42.71,127.4-18.08,22-40.89,37.68-70,42-23.25,3.42-45-2.1-64.62-14.83-31.32-20.34-50.16-49.63-61.53-84A222.35,222.35,0,0,1,411,182.83c3.38-34.35,13.09-66.6,32.91-95.36,13.07-19,29.48-34.84,51-44.52,31.26-14,61.77-11.86,90.87,6.08,29.56,18.24,47.62,45.46,60.05,76.46C656.09,151.09,659.53,178.12,660.31,204.89ZM545.12,355.43a38.69,38.69,0,0,0,4.87-.27,78.73,78.73,0,0,0,35.49-16.84c22.38-18.69,37.19-42.32,45.8-69.72C647.14,218.08,644.91,168.4,623,120c-10.52-23.25-25.66-43.21-48.46-56.53-9-5.27-18.55-9.68-29.44-10.52Zm-19.5,1.27V97.88c-8.22,6-15.92,7.89-24.24,7.11-13.18-1.25-21.73,5.21-27.65,15.83-3,5.34-5.41,11-8,16.5-5.33,11.27-14.11,18.46-26.54,20.89-4.12.8-6,2.51-6.71,6.49-8.84,47.75-3.5,93.59,20.69,136.33,11.79,20.82,27.14,39.09,50.51,48.75C510.73,352.7,518.32,354.44,525.62,356.7ZM522.94,54.06c-29.19-1.4-84.5,55.77-81.86,84.37,6.64-4.21,9.7-10.61,12.18-17.21,8.6-22.93,24.32-34.12,49.13-34.35,6.81-.07,11.71-2.92,15.94-8C524.57,71.44,523.09,62.93,522.94,54.06Z" transform="translate(0 -20.36)"/><path d="M527,475.93H505.11c-15.18,0-30.37.14-45.54-.16a8.41,8.41,0,0,1-6-3.51,38.6,38.6,0,0,0-20.19-17.34c-23.27-8.76-46.52-17.58-69.88-26.12C350,423.87,340.73,415.24,335.68,402c-13.38-35.22-27-70.37-40.48-105.55-.37-.95-.74-1.9-1.05-2.87-1.92-6,0-11.12,5-13.5,5.64-2.64,10.61-1.21,14.16,4.84,10.57,18,22.24,35.46,31,54.25,11.37,24.48,30.4,41.24,51.9,56.25,4,2.83,8.44,5.19,12.6,7.88,3.37,2.19,6.95,3.9,9.78-.19s-.47-6.47-3.69-8.77c-11.88-8.51-24-16.73-35.31-26-6.44-5.26-11.94-11.88-16.92-18.56s-4.28-11.89,0-15.33c4.63-3.69,10.2-3.16,16.31,1.76,9,7.24,18.13,14.3,26.75,21.93,9.79,8.65,21.1,14.06,33.49,18.16a387.77,387.77,0,0,1,39.4,15.09c14.11,6.46,25.36,16.87,35.34,28.5,10.49,12.23,13.36,26.73,13,42.19C526.87,466.5,527,470.92,527,475.93Z" transform="translate(0 -20.36)"/><path d="M544.46,475.93c-7.25-36.61,9.42-61.71,39.08-79.89a138.23,138.23,0,0,1,33.9-15,145.27,145.27,0,0,0,60.81-34.34c4.49-4.22,9.52-7.88,14.36-11.72,4.55-3.6,9.43-4.13,14.34-.79s4.78,8.39,1.92,12.43c-5,7.11-10.21,14.47-16.78,20.12-10.87,9.35-22.87,17.44-34.43,26-1.48,1.1-3.76,1.64-4.57,3.05-1.14,2-2.48,5.67-1.56,6.62,1.52,1.58,5.65,2.95,7.17,2,25.89-15.73,50.46-32.54,64.5-60.76,10-20.05,22-39.14,33.31-58.55,3.62-6.22,8.51-7.82,14-5.35s7.54,7.79,5,14.44q-21,55.08-42.14,110.08c-4.16,10.78-12.13,18.29-22.89,22.88-4.76,2-9.68,3.68-14.53,5.5-19.39,7.27-38.75,14.61-58.18,21.8A40.8,40.8,0,0,0,616,472.8c-.82,1.4-2.87,3-4.37,3C589.21,476,566.77,475.93,544.46,475.93Z" transform="translate(0 -20.36)"/><path class="cls-9" d="M545.12,355.43V52.93c10.89.84,20.41,5.25,29.44,10.52C597.36,76.77,612.5,96.73,623,120c21.89,48.42,24.12,98.1,8.26,148.62-8.61,27.4-23.42,51-45.8,69.72A78.73,78.73,0,0,1,550,355.16,38.69,38.69,0,0,1,545.12,355.43Z" transform="translate(0 -20.36)"/><path class="cls-9" d="M525.62,356.7c-7.3-2.26-14.89-4-22-6.92-23.37-9.66-38.72-27.93-50.51-48.75C429,258.29,423.62,212.45,432.46,164.7c.74-4,2.59-5.69,6.71-6.49,12.43-2.43,21.21-9.62,26.54-20.89,2.61-5.53,5-11.16,8-16.5,5.92-10.62,14.47-17.08,27.65-15.83,8.32.78,16-1.16,24.24-7.11Z" transform="translate(0 -20.36)"/><path class="cls-10" d="M522.94,54.06c.15,8.87,1.63,17.38-4.61,24.84-4.23,5-9.13,7.9-15.94,8-24.81.23-40.53,11.42-49.13,34.35-2.48,6.6-5.54,13-12.18,17.21C438.44,109.83,493.75,52.66,522.94,54.06Z" transform="translate(0 -20.36)"/></g></g></svg>