<svg id="Layer_1" data-name="Layer 1" xmlns="http://www.w3.org/2000/svg" viewBox="0 0 1129 663"><defs><style>.cls-1,.cls-9{fill:#3ecc5f;}.cls-2{fill:#3f3d56;}.cls-3{opacity:0.2;}.cls-10,.cls-3{isolation:isolate;}.cls-4{fill:#8383a5;}.cls-5{fill:#eda20a;}.cls-6{fill:#e54413;}.cls-7{fill:#606060;}.cls-8{fill:#2e8555;}.cls-11,.cls-12,.cls-13,.cls-9{fill-rule:evenodd;}.cls-10{opacity:0.1;}.cls-11{fill:#44d860;}.cls-12{fill:#ffff50;}.cls-14{fill:#fff;}</style></defs><title>undraw_docusaurus_tree</title><circle class="cls-1" cx="321" cy="321" r="321"/><ellipse class="cls-2" cx="559" cy="635.5" rx="514" ry="27.5"/><ellipse class="cls-3" cx="558" cy="627" rx="460" ry="22"/><rect class="cls-2" x="131" y="152.5" width="840" height="50"/><path class="cls-2" d="M131,608.83a21.67,21.67,0,0,0,21.67,21.67H949.33A21.67,21.67,0,0,0,971,608.83h0V177.5H131Z" transform="translate(0 0)"/><path class="cls-2" d="M949.33,117.5H152.67A21.67,21.67,0,0,0,131,139.17h0V177.5H971V139.17a21.67,21.67,0,0,0-21.67-21.67Z" transform="translate(0 0)"/><path class="cls-3" d="M949.33,117.5H152.67A21.67,21.67,0,0,0,131,139.17h0V177.5H971V139.17a21.67,21.67,0,0,0-21.67-21.67Z" transform="translate(0 0)"/><circle class="cls-4" cx="181" cy="147.5" r="13"/><circle class="cls-5" cx="217" cy="147.5" r="13"/><circle class="cls-6" cx="253" cy="147.5" r="13"/><rect class="cls-7" x="168" y="213.5" width="337" height="386" rx="5.34"/><rect class="cls-8" x="603" y="272.5" width="284" height="22" rx="5.48"/><rect class="cls-8" x="537" y="352.5" width="416" height="15" rx="5.48"/><rect class="cls-8" x="537" y="396.5" width="416" height="15" rx="5.48"/><rect class="cls-8" x="537" y="440.5" width="416" height="15" rx="5.48"/><rect class="cls-8" x="537" y="484.5" width="416" height="15" rx="5.48"/><rect class="cls-1" x="865" y="552.5" width="88" height="26" rx="7.03"/><path class="cls-2" d="M1053.1,506.12a30.19,30.19,0,0,0,4-15.27c0-13.8-8.55-25-19.09-25s-19.08,11.18-19.08,25a30.18,30.18,0,0,0,4,15.27,31.25,31.25,0,0,0,0,30.53,31.25,31.25,0,0,0,0,30.53,31.25,31.25,0,0,0,0,30.53,30.18,30.18,0,0,0-4,15.27c0,13.79,8.54,25,19.08,25s19.09-11.19,19.09-25a30.19,30.19,0,0,0-4-15.27,31.25,31.25,0,0,0,0-30.53,31.25,31.25,0,0,0,0-30.53A31.25,31.25,0,0,0,1053.1,506.12Z" transform="translate(0 0)"/><ellipse class="cls-2" cx="1038" cy="460.32" rx="19.08" ry="24.98"/><ellipse class="cls-2" cx="1038" cy="429.79" rx="19.08" ry="24.98"/><path class="cls-9" d="M1109.44,220.84a90.78,90.78,0,0,0,7.11-10.46l-50.15-8.23,54.23.4a91.52,91.52,0,0,0,1.75-72.42l-72.76,37.74,67.1-49.32a91.41,91.41,0,1,0-151,102.29,91.64,91.64,0,0,0-10.42,16.67l65.08,33.82L951,248a91.43,91.43,0,0,0,14.74,85.83,91.41,91.41,0,1,0,143.69,0A91.42,91.42,0,0,0,1109.44,220.84Z" transform="translate(0 0)"/><path class="cls-10" d="M946.19,277.36a91,91,0,0,0,19.56,56.51,91.41,91.41,0,1,0,143.69,0C1121.69,318.32,946.19,267.1,946.19,277.36Z" transform="translate(0 0)"/><path class="cls-9" d="M388.51,516.78h39.81V463.7H388.51Z" transform="translate(0 0)"/><path class="cls-11" d="M496.07,563.37a8.79,8.79,0,0,0-1.14.11c-.06-.27-.13-.53-.2-.8A8.91,8.91,0,0,0,488,546.19a8.73,8.73,0,0,0-2,1.18l-.6-.6a8.91,8.91,0,0,0-14.26-10.69,9.06,9.06,0,0,0-1.07,1.86c-.26-.08-.53-.14-.79-.21a8.93,8.93,0,1,0-17.63,0c-.26.07-.53.13-.79.21a8.91,8.91,0,0,0-16.44,6.9,9,9,0,0,0,1.11,1.93,35.68,35.68,0,1,0,59.49,34.33,8.91,8.91,0,1,0,2.32-17.66,9.23,9.23,0,0,0-1.18-.07" transform="translate(0 0)"/><path class="cls-9" d="M401.78,437.16h39.81V410.62H401.78Z" transform="translate(0 0)"/><path class="cls-11" d="M454.86,427.21a3.32,3.32,0,0,0,0-6.64l-.42,0c0-.1-.05-.2-.08-.3a3.31,3.31,0,1,0-3.27-5.69l-.23-.22a3.24,3.24,0,0,0,.67-2,3.32,3.32,0,0,0-6.37-1.3,13.27,13.27,0,1,0,0,25.54,3.32,3.32,0,0,0,6.37-1.3,3.22,3.22,0,0,0-.67-2l.23-.23a3.21,3.21,0,0,0,2,.69,3.32,3.32,0,0,0,1.27-6.38c0-.1.05-.2.08-.3a3,3,0,0,0,.42,0" transform="translate(0 0)"/><path class="cls-12" d="M339.45,603.22h107.1a35.7,35.7,0,0,0,35.7-35.7h0V442.57H375.15a35.7,35.7,0,0,0-35.7,35.7h0Z" transform="translate(0 0)"/><path class="cls-13" d="M421.71,548.49h-66.4a1.33,1.33,0,0,1,0-2.66h66.4a1.33,1.33,0,0,1,1.33,1.33,1.35,1.35,0,0,1-1.33,1.33m0,26.54h-66.4a1.33,1.33,0,1,1,0-2.66h66.41a1.33,1.33,0,1,1,0,2.66m0,26.54h-66.4a1.33,1.33,0,1,1,0-2.66h66.41a1.33,1.33,0,1,1,0,2.66m0-66.11h-66.4a1.33,1.33,0,0,1,0-2.65h66.4a1.33,1.33,0,1,1,0,2.65m0,26.3h-66.4a1.33,1.33,0,0,1,0-2.66h66.4a1.33,1.33,0,0,1,0,2.66m0,26.54h-66.4a1.33,1.33,0,0,1,0-2.66h66.4a1.33,1.33,0,1,1,0,2.66m58-132.94h-.05c-4.1.14-6,4.24-7.75,7.86-1.79,3.78-3.17,6.24-5.43,6.16-2.51-.09-3.94-2.92-5.46-5.91-1.74-3.45-3.73-7.35-7.91-7.2s-6,3.7-7.71,6.85c-1.83,3.36-3.07,5.4-5.47,5.3-2.56-.09-3.91-2.39-5.49-5.06-1.75-3-3.78-6.3-7.87-6.19s-5.93,3.17-7.65,5.84c-1.82,2.83-3.1,4.55-5.53,4.45-2.62-.09-4-2-5.54-4.22-1.75-2.48-3.73-5.3-7.82-5.16-3.88.13-5.84,2.62-7.56,4.8s-2.91,3.72-5.61,3.62a1.33,1.33,0,0,0-.1,2.65c4,.14,6-2.39,7.8-4.63,1.56-2,2.91-3.69,5.56-3.78s3.76,1.47,5.57,4,3.67,5.19,7.6,5.33c4.12.14,6.1-2.94,7.86-5.66,1.57-2.43,2.92-4.53,5.51-4.62,2.37-.09,3.67,1.79,5.5,4.88,1.72,2.92,3.67,6.22,7.68,6.37s6.15-3.48,7.89-6.69c1.51-2.77,2.94-5.38,5.47-5.47,2.38-.06,3.62,2.12,5.45,5.74,1.72,3.39,3.66,7.23,7.73,7.38h.23c4.06,0,6-4.08,7.7-7.69,1.51-3.2,2.94-6.21,5.4-6.33Z" transform="translate(0 0)"/><path class="cls-11" d="M375.24,427.21a3.32,3.32,0,0,0,0-6.64h0l-.42,0c0-.1-.05-.2-.08-.3a3.32,3.32,0,0,0-1.28-6.38,3.36,3.36,0,0,0-2,.69l-.22-.22a3.31,3.31,0,1,0-5.7-3.28,13.27,13.27,0,1,0,0,25.54,3.32,3.32,0,0,0,6.37-1.3,3.28,3.28,0,0,0-.67-2l.22-.23a3.23,3.23,0,0,0,2,.69,3.32,3.32,0,0,0,1.28-6.38c0-.1.05-.2.08-.3a3,3,0,0,0,.42,0" transform="translate(0 0)"/><path d="M409.7,391.38c-1.1,30.51-8.06,58.82-27.78,82.85-11.76,14.33-26.59,24.51-45.54,27.3-15.12,2.22-29.29-1.37-42-9.65-20.37-13.23-32.62-32.28-40-54.63A144.53,144.53,0,0,1,247.54,377c2.2-22.34,8.51-43.32,21.41-62,8.49-12.33,19.17-22.65,33.17-28.95,20.34-9.13,40.18-7.71,59.11,4,19.23,11.86,31,29.56,39,49.72C407,356.38,409.19,374,409.7,391.38Zm-74.92,97.9a22.73,22.73,0,0,0,3.17-.17A51.29,51.29,0,0,0,361,478.16c14.55-12.16,24.18-27.53,29.78-45.35,10.32-32.86,8.87-65.17-5.37-96.66-6.84-15.12-16.69-28.1-31.51-36.76-5.88-3.43-12.07-6.3-19.15-6.85Zm-12.69.83V321.78c-5.34,3.87-10.35,5.13-15.76,4.62-8.57-.81-14.14,3.39-18,10.29-1.93,3.48-3.51,7.14-5.21,10.74-3.47,7.32-9.18,12-17.26,13.58-2.68.52-3.89,1.64-4.37,4.23-5.75,31.05-2.27,60.87,13.46,88.66,7.67,13.55,17.65,25.43,32.85,31.71C312.41,487.51,317.34,488.64,322.09,490.11Zm-1.74-196.83c-19-.91-55,36.27-53.24,54.87,4.32-2.74,6.31-6.9,7.92-11.2,5.59-14.91,15.82-22.18,32-22.34,4.43,0,7.62-1.89,10.37-5.18C321.41,304.58,320.45,299.05,320.35,293.28Z" transform="translate(0 0)"/><path d="M323,567.66H308.75c-9.87,0-19.75.09-29.62-.11a5.4,5.4,0,0,1-3.89-2.28A25.21,25.21,0,0,0,262.1,554c-15.13-5.69-30.26-11.43-45.45-17-8.77-3.21-14.81-8.83-18.09-17.47-8.7-22.91-17.55-45.77-26.33-68.65-.24-.62-.48-1.24-.68-1.87-1.25-3.93,0-7.23,3.28-8.77,3.66-1.72,6.9-.79,9.21,3.14,6.87,11.69,14.46,23.07,20.14,35.29,7.4,15.92,19.77,26.82,33.76,36.58,2.64,1.84,5.49,3.38,8.19,5.13,2.2,1.42,4.53,2.53,6.36-.12s-.3-4.21-2.39-5.71c-7.73-5.53-15.63-10.88-23-16.88a67.13,67.13,0,0,1-11-12.07c-3.17-4.25-2.79-7.73,0-10,3-2.4,6.63-2.06,10.6,1.14,5.84,4.71,11.79,9.31,17.4,14.27,6.37,5.62,13.73,9.14,21.79,11.81a252.31,252.31,0,0,1,25.62,9.81c9.17,4.2,16.49,11,23,18.54,6.83,7.95,8.69,17.38,8.44,27.44C322.9,561.52,323,564.4,323,567.66Z" transform="translate(0 0)"/><path d="M334.35,567.66c-4.72-23.82,6.13-40.14,25.41-52A90.53,90.53,0,0,1,381.81,506a94.5,94.5,0,0,0,39.56-22.33c2.91-2.74,6.18-5.12,9.34-7.62,3-2.34,6.13-2.69,9.32-.52s3.11,5.46,1.25,8.09c-3.28,4.62-6.64,9.41-10.91,13.08C423.3,502.75,415.49,508,408,513.6c-1,.72-2.44,1.07-3,2-.74,1.3-1.62,3.69-1,4.31,1,1,3.68,1.92,4.67,1.32,16.83-10.23,32.82-21.17,42-39.52,6.49-13,14.31-25.46,21.66-38.08,2.36-4.05,5.54-5.09,9.1-3.48s4.9,5.06,3.26,9.39Q471,485.34,457.21,521.11c-2.71,7-7.9,11.9-14.89,14.89-3.1,1.32-6.3,2.39-9.45,3.57-12.61,4.73-25.21,9.51-37.84,14.18a26.57,26.57,0,0,0-14.14,11.87,4.17,4.17,0,0,1-2.84,2C363.45,567.69,348.86,567.66,334.35,567.66Z" transform="translate(0 0)"/><path class="cls-1" d="M334.78,489.28V292.54c7.08.55,13.27,3.42,19.15,6.85,14.82,8.66,24.67,21.64,31.51,36.76,14.24,31.49,15.69,63.8,5.37,96.66-5.6,17.82-15.23,33.19-29.78,45.35A51.29,51.29,0,0,1,338,489.11,22.73,22.73,0,0,1,334.78,489.28Z" transform="translate(0 0)"/><path class="cls-1" d="M322.09,490.11c-4.75-1.47-9.68-2.6-14.28-4.5-15.2-6.28-25.18-18.16-32.85-31.71-15.73-27.79-19.21-57.61-13.46-88.66.48-2.59,1.69-3.71,4.37-4.23,8.08-1.58,13.79-6.26,17.26-13.58,1.7-3.6,3.28-7.26,5.21-10.74,3.85-6.9,9.42-11.1,18-10.29,5.41.51,10.42-.75,15.76-4.62Z" transform="translate(0 0)"/><path class="cls-14" d="M320.35,293.28c.1,5.77,1.06,11.3-3,16.15-2.75,3.29-5.94,5.14-10.37,5.18-16.13.16-26.36,7.43-32,22.34-1.61,4.3-3.6,8.46-7.92,11.2C265.39,329.55,301.37,292.37,320.35,293.28Z" transform="translate(0 0)"/></svg>