<svg id="Layer_1" data-name="Layer 1" xmlns="http://www.w3.org/2000/svg" viewBox="0 0 1041.28 554.14"><defs><style>.cls-1{fill:#f2f2f2;}.cls-2{opacity:0.1;}.cls-2,.cls-4{isolation:isolate;}.cls-3{fill:#65617d;}.cls-4{opacity:0.2;}.cls-5{fill:#3f3d56;}.cls-6{fill:#39374d;}.cls-7{fill:#4267b2;}.cls-8{fill:#fbbebe;}.cls-9{fill:#ff6584;}.cls-10{fill:#61dafb;}.cls-11{fill:#3ecc5f;}.cls-12{fill:#003cd3;}.cls-13{fill:#fff;}</style></defs><title>undraw_docusaurus_react</title><g id="Group_24" data-name="Group 24"><g id="Group_23" data-name="Group 23"><path id="Path_299" data-name="Path 299" class="cls-1" d="M961.47,438.17q-1.74,3.75-3.47,7.41-2.7,5.66-5.33,11.12c-.78,1.6-1.56,3.19-2.32,4.77-8.6,17.57-16.63,33.11-23.45,45.89a73.21,73.21,0,0,1-63.81,38.69l-151.65,1.66h-1.6l-13,.14-11.12.12-34.1.37h-1.38l-17.36.19h-.53l-107,1.15-95.51,1-11.11.12-69,.75h-.08L304.9,552h-.48l-141.5,1.53-42.33.47a88.31,88.31,0,0,1-10.79-.54h0c-1.22-.14-2.44-.3-3.65-.49a87.43,87.43,0,0,1-51.29-27.54c-18.21-20-31.46-43.41-40.36-68.76q-1.93-5.49-3.6-11.12c-30.81-104.16,6.75-238.53,74.35-328.45q4.25-5.64,8.64-11l.07-.08c20.79-25.52,44.1-46.84,68.93-62,44-26.91,92.75-34.49,140.7-11.9C344.16,51.27,382,60.26,418.76,62.7c3.71.25,7.42.42,11.11.53C514.1,65.88,593,35.53,685.74,16c3.69-.78,7.39-1.56,11.12-2.28C763,.5,836.35-6.44,923.59,8.16a187.71,187.71,0,0,1,26.76,6.4q5.77,1.84,11.12,4c41.64,16.94,64.35,48.24,74,87.46.91,3.63,1.7,7.34,2.37,11.1C1055,211.46,1004.84,345.28,961.47,438.17Z" transform="translate(0 0)"/><path id="Path_300" data-name="Path 300" class="cls-2" d="M497,445.58a95.22,95.22,0,0,1-1.87,11.12h93.7V445.58Zm-78.25,62.81,11.11-.1V480.83c-3.81-.17-7.52-.35-11.11-.53ZM185.84,445.58V456.7h198.5V445.58Zm849.68-339.53h-74V18.56q-5.35-2.16-11.12-4v91.49H696.86V13.63c-3.73.73-7.43,1.5-11.12,2.28v90.14H429.87V63.2c-3.69-.11-7.4-.29-11.11-.53v43.38H162.89v-62c-24.83,15.16-48.14,36.48-68.93,62h-.07v.08q-4.4,5.4-8.64,11h8.64V445.58h-83q1.66,5.63,3.6,11.12H93.88v93.61a84.85,84.85,0,0,0,12.2,2.79c1.21.19,2.43.35,3.65.49h0a84.49,84.49,0,0,0,10.79.54l42.33-.46v-97H418.76v94.21l11.11-.12V456.7H685.74v91.35l11.12-.12V456.7H950.35v4.77c.76-1.58,1.54-3.16,2.32-4.77q2.63-5.46,5.33-11.12,1.72-3.65,3.47-7.41v-321h76.42Q1036.89,111.48,1035.52,106.05ZM162.89,445.58V117.13H418.76V445.58Zm267,0V117.13H685.74V445.58Zm520.48,0H696.86V117.13H950.35Z" transform="translate(0 0)"/><path id="Path_301" data-name="Path 301" class="cls-3" d="M863.08,533.62v13L711.16,548l-1.62,0-57.74.53-1.38,0-17.55.15h-.52l-107,1-175.61,1.63h-.15l-44.65.41-.48,0-198.4,1.82v-15l46.65-28,93.6-.78h2l.66,0,2,0,44.94-.36,2,0h2.64l14.41-.12h.38l35.55-.3h.29l277.4-2.34,6.79-.05h.68l5.18,0,37.65-.31,2,0,1.85,0h1l11.71-.09,2.32,0,3.11,0,9.75-.09,15.47-.13,2,0,3.48,0h.65l74.71-.64Z" transform="translate(0 0)"/><path id="Path_302" data-name="Path 302" class="cls-4" d="M863.08,533.62v13L711.16,548l-1.62,0-57.74.53-1.38,0-17.55.15h-.52l-107,1-175.61,1.63h-.15l-44.65.41-.48,0-198.4,1.82v-15l46.65-28,93.6-.78h2l.66,0,2,0,44.94-.36,2,0h2.64l14.41-.12h.38l35.55-.3h.29l277.4-2.34,6.79-.05h.68l5.18,0,37.65-.31,2,0,1.85,0h1l11.71-.09,2.32,0,3.11,0,9.75-.09,15.47-.13,2,0,3.48,0h.65l74.71-.64Z" transform="translate(0 0)"/><path id="Path_303" data-name="Path 303" class="cls-5" d="M296.09,483.62v24.49a6.12,6.12,0,0,1-3.5,5.54,5.86,5.86,0,0,1-2.5.6l-34.9.74a5.86,5.86,0,0,1-2.7-.57,6.11,6.11,0,0,1-3.57-5.57V483.62Z" transform="translate(0 0)"/><path id="Path_304" data-name="Path 304" class="cls-2" d="M296.09,483.62v24.49a6.12,6.12,0,0,1-3.5,5.54,5.86,5.86,0,0,1-2.5.6l-34.9.74a5.86,5.86,0,0,1-2.7-.57,6.11,6.11,0,0,1-3.57-5.57V483.62Z" transform="translate(0 0)"/><path id="Path_305" data-name="Path 305" class="cls-5" d="M298.09,483.62v24.49a6.12,6.12,0,0,1-3.5,5.54,5.86,5.86,0,0,1-2.5.6l-34.9.74a5.86,5.86,0,0,1-2.7-.57,6.11,6.11,0,0,1-3.57-5.57V483.62Z" transform="translate(0 0)"/><rect id="Rectangle_137" data-name="Rectangle 137" class="cls-5" x="680.91" y="483.62" width="47.17" height="31.5"/><rect id="Rectangle_138" data-name="Rectangle 138" class="cls-2" x="680.91" y="483.62" width="47.17" height="31.5"/><rect id="Rectangle_139" data-name="Rectangle 139" class="cls-5" x="678.91" y="483.62" width="47.17" height="31.5"/><path id="Path_306" data-name="Path 306" class="cls-2" d="M298.08,483.61v5l-47.17,1.26v-6.23Z" transform="translate(0 0)"/><path id="Path_307" data-name="Path 307" class="cls-3" d="M381.34,312.32v168.2a4,4,0,0,1-3.85,4l-191.65,5.1h-.05a4,4,0,0,1-3.95-3.95V312.32a4,4,0,0,1,3.95-3.95h191.6a4,4,0,0,1,3.95,3.95Z" transform="translate(0 0)"/><path id="Path_308" data-name="Path 308" class="cls-2" d="M185.84,308.37V489.58h-.05a4,4,0,0,1-3.95-4V312.32a4,4,0,0,1,3.95-3.95Z" transform="translate(0 0)"/><path id="Path_309" data-name="Path 309" class="cls-6" d="M194.58,319.11h177.5V467.36l-177.5,4Z" transform="translate(0 0)"/><path id="Path_310" data-name="Path 310" class="cls-2" d="M726.08,483.61V490l-47.17-1.26v-5.15Z" transform="translate(0 0)"/><path id="Path_311" data-name="Path 311" class="cls-3" d="M788.34,312.32v173.3a4,4,0,0,1-4,4h0l-191.69-5.11a4,4,0,0,1-3.85-4V312.32a4,4,0,0,1,4-3.95h191.6A4,4,0,0,1,788.34,312.32Z" transform="translate(0 0)"/><path id="Path_312" data-name="Path 312" class="cls-2" d="M788.34,312.32v173.3a4,4,0,0,1-4,4h0V308.37h0a4,4,0,0,1,4,4Z" transform="translate(0 0)"/><path id="Path_313" data-name="Path 313" class="cls-6" d="M775.58,319.11H598.08V467.36l177.5,4Z" transform="translate(0 0)"/><path id="Path_314" data-name="Path 314" class="cls-3" d="M583.84,312.32v168.2a4,4,0,0,1-3.85,4l-191.65,5.1h0a4,4,0,0,1-4-3.95V312.32a4,4,0,0,1,4-3.95h191.6A4,4,0,0,1,583.84,312.32Z" transform="translate(0 0)"/><path id="Path_315" data-name="Path 315" class="cls-7" d="M397.08,319.11h177.5V467.36l-177.5,4Z" transform="translate(0 0)"/><path id="Path_316" data-name="Path 316" class="cls-2" d="M863.08,533.62v13L711.16,548l-1.62,0-57.74.53-1.38,0-17.55.15h-.52l-107,1-175.61,1.63h-.15l-44.65.41-.48,0-198.4,1.82v-15l202.51-1.34h.48l41-.28h.19l283.08-1.87h.93l4.79,0h1.46l74.49-.5,4.4,0h1Z" transform="translate(0 0)"/><circle id="Ellipse_111" data-name="Ellipse 111" class="cls-8" cx="487.25" cy="298.12" r="51.33"/><path id="Path_317" data-name="Path 317" class="cls-8" d="M538.59,377.12s-99.5,12-90,0c3.44-4.34,4.39-17.2,4.2-31.84-.06-4.45-.22-9.06-.45-13.65-1.1-22-3.75-43.5-3.75-43.5s87-41,77-8.5c-4,13.13-2.69,31.57.35,48.88.89,5.05,1.92,10,3,14.7A343.78,343.78,0,0,0,538.59,377.12Z" transform="translate(0 0)"/><path id="Path_318" data-name="Path 318" class="cls-9" d="M506.12,373.05c11.51-2.13,23.7-6,34.53-1.53,2.85,1.16,5.47,2.88,8.39,3.85s6.12,1.22,9.16,1.91c10.68,2.42,19.34,10.55,24.9,20s8.44,20.14,11.26,30.72l6.9,25.83c6,22.45,12,45.09,13.39,68.3a2434.78,2434.78,0,0,1-250.84,1.43c5.44-10.34,11-21.31,10.54-33s-7.19-23.22-4.76-34.74c1.55-7.34,6.57-13.39,9.64-20.22,8.75-19.52,1.94-45.79,17.32-60.65,6.92-6.68,17-9.21,26.63-8.89,12.28.41,24.85,4.24,37,6.11C475.74,374.53,490.44,375.93,506.12,373.05Z" transform="translate(0 0)"/><path id="Path_319" data-name="Path 319" class="cls-2" d="M637,484.22l-.1,1.43v.1l-.17,2.3-1.33,18.51-1.61,22.3-.46,6.28-1,13.44v.17l-107,1-175.59,1.9v.84h-.14v-1.12l.45-14.35.86-28.06.74-23.79.07-2.37a10.53,10.53,0,0,1,10.85-10.21l.57,0c4.72.4,10.85.89,18.18,1.41l3,.21c42.33,2.95,120.56,6.74,199.5,2l5-.3c12.24-.78,24.47-1.77,36.58-3A10.53,10.53,0,0,1,637,482.32a11.45,11.45,0,0,1,0,1.85Z" transform="translate(0 0)"/><path id="Path_320" data-name="Path 320" class="cls-5" d="M349.73,552.49v-.84l175.62-1.91,107-1h.3v-.16l1-13.44.43-6,1.64-22.61L637,488.62v-.44a10.66,10.66,0,0,0-.11-2.46v-.1a10.38,10.38,0,0,0-2-4.64,10.5,10.5,0,0,0-9.42-4c-12.11,1.24-24.34,2.23-36.58,3-1.67.12-3.34.22-5,.31-78.94,4.69-157.17.89-199.5-2l-3-.22c-7.33-.52-13.46-1-18.18-1.41A10.53,10.53,0,0,0,352,485.19a11.12,11.12,0,0,0-.18,1.64L351.12,509l-.93,28.06-.44,14.36v1.12Z" transform="translate(0 0)"/><path id="Path_321" data-name="Path 321" class="cls-2" d="M637.32,491.23l-1.23,15.33-1.83,22.85-.46,5.72-1,12.81-.06.64v.17h0l-.15,1.48.11-1.48h-.29l-107,1-175.65,1.9v-.28l.49-14.36,1-28.06.64-18.65a6.35,6.35,0,0,1,6.84-6.15c2.1.17,4.68.37,7.69.59,4.89.36,10.92.79,17.94,1.22,13,.82,29.31,1.7,48,2.42,52,2,122.2,2.67,188.88-3.17,3-.26,6.1-.55,9.13-.84a6.34,6.34,0,0,1,3.48.66,6.91,6.91,0,0,1,.86.54,6.22,6.22,0,0,1,2,2.46,4.6,4.6,0,0,1,.25.61A6.36,6.36,0,0,1,637.32,491.23Z" transform="translate(0 0)"/><path id="Path_322" data-name="Path 322" class="cls-2" d="M298.09,504.92v3.19a6.12,6.12,0,0,1-3.5,5.54l-40.1.77a6.11,6.11,0,0,1-3.57-5.57v-3Z" transform="translate(0 0)"/><path id="Path_323" data-name="Path 323" class="cls-5" d="M298.58,515.53l-52.25,1v-8.67l52.25-1Z" transform="translate(0 0)"/><path id="Path_324" data-name="Path 324" class="cls-2" d="M298.58,515.53l-52.25,1v-8.67l52.25-1Z" transform="translate(0 0)"/><path id="Path_325" data-name="Path 325" class="cls-5" d="M300.58,515.53l-52.25,1v-8.67l52.25-1Z" transform="translate(0 0)"/><path id="Path_326" data-name="Path 326" class="cls-2" d="M679.21,506.92v3.19a6.12,6.12,0,0,0,3.5,5.54l40.1.77a6.11,6.11,0,0,0,3.57-5.57v-3Z" transform="translate(0 0)"/><path id="Path_327" data-name="Path 327" class="cls-2" d="M678.71,517.53l52.25,1v-8.67l-52.25-1Z" transform="translate(0 0)"/><path id="Path_328" data-name="Path 328" class="cls-5" d="M676.71,517.53l52.25,1v-8.67l-52.25-1Z" transform="translate(0 0)"/><path id="Path_329" data-name="Path 329" class="cls-5" d="M454.78,313.84c.08,7-3.16,13.61-5.91,20.08a163.45,163.45,0,0,0-12.66,74.7c.73,11,2.58,22,.73,32.91s-8.43,21.77-19,24.9c17.53,10.45,41.26,9.35,57.76-2.66,8.79-6.4,15.34-15.33,21.75-24.11a97.9,97.9,0,0,1-13.31,44.75,103.46,103.46,0,0,0,73.51-40.82c4.31-5.81,8.06-12.19,9.72-19.23,3.09-13-1.22-26.51-4.51-39.5a266.28,266.28,0,0,1-6.17-33c-.43-3.56-.78-7.22.1-10.7,1-4.07,3.67-7.51,5.64-11.22,5.6-10.54,5.73-23.3,2.86-34.88s-8.49-22.26-14.06-32.81c-4.46-8.46-9.3-17.31-17.46-22.28-5.1-3.1-11-4.39-16.88-5.64l-25.37-5.43c-5.55-1.19-11.26-2.38-16.87-1.51-9.47,1.48-16.14,8.32-22,15.33-4.59,5.46-15.81,15.71-16.6,22.87-.72,6.59,5.1,17.63,6.09,24.58,1.3,9,2.22,6,7.3,11.51C452.65,305.1,454.72,309.05,454.78,313.84Z" transform="translate(0 0)"/></g><g id="React-icon"><path id="Path_330" data-name="Path 330" class="cls-10" d="M730,395.74c0-5.83-7.3-11.35-18.49-14.78,2.58-11.4,1.43-20.47-3.62-23.38a8,8,0,0,0-4-1v4a4.17,4.17,0,0,1,2,.47c2.44,1.4,3.5,6.72,2.67,13.57-.2,1.69-.52,3.46-.92,5.27a87.56,87.56,0,0,0-11.38-1.95,88.91,88.91,0,0,0-7.46-9c5.84-5.43,11.33-8.41,15.06-8.41v-4h0c-4.93,0-11.38,3.51-17.91,9.61-6.53-6.06-13-9.54-17.91-9.54v4c3.71,0,9.21,3,15.06,8.36a85.5,85.5,0,0,0-7.41,8.94,84.66,84.66,0,0,0-11.4,2c-.41-1.8-.71-3.54-.93-5.2-.84-6.85.2-12.18,2.62-13.6a4.07,4.07,0,0,1,2.06-.46v-4h0a8,8,0,0,0-4,1c-5,2.9-6.17,12-3.57,23.33-11.15,3.44-18.41,8.94-18.41,14.75s7.3,11.35,18.48,14.78c-2.58,11.4-1.43,20.48,3.62,23.38a7.94,7.94,0,0,0,4,1c4.93,0,11.38-3.51,17.91-9.61,6.53,6.06,13,9.54,17.91,9.54a8.09,8.09,0,0,0,4.06-1c5-2.9,6.16-12,3.56-23.33C722.71,407.07,730,401.55,730,395.74Zm-23.35-12c-.66,2.31-1.49,4.7-2.42,7.08-.73-1.43-1.51-2.87-2.35-4.3s-1.7-2.83-2.58-4.2c2.55.38,5,.84,7.35,1.42Zm-8.21,19.1c-1.4,2.42-2.83,4.71-4.32,6.85-2.67.23-5.38.36-8.1.36s-5.42-.13-8.07-.34c-1.49-2.14-2.93-4.41-4.34-6.82s-2.61-4.72-3.73-7.13c1.11-2.4,2.37-4.81,3.71-7.16s2.84-4.71,4.32-6.85c2.68-.23,5.38-.36,8.1-.36s5.42.13,8.07.34q2.24,3.21,4.34,6.82c1.36,2.35,2.61,4.73,3.73,7.13-1.13,2.4-2.37,4.81-3.71,7.15Zm5.79-2.33c1,2.4,1.79,4.8,2.48,7.13-2.35.58-4.83,1.06-7.39,1.44.88-1.38,1.76-2.8,2.58-4.25s1.6-2.89,2.33-4.33ZM686,419.68c-1.76-1.83-3.42-3.75-5-5.74,1.62.07,3.27.12,4.94.12s3.35,0,5-.12A70.71,70.71,0,0,1,686,419.68Zm-13.34-10.57q-3.82-.56-7.35-1.41c.66-2.32,1.49-4.7,2.42-7.09.73,1.44,1.5,2.87,2.35,4.3S671.8,407.75,672.68,409.11Zm13.25-37.31a73.39,73.39,0,0,1,5,5.74c-1.61-.07-3.26-.13-4.93-.13s-3.35,0-5,.13A69.05,69.05,0,0,1,685.93,371.8Zm-13.27,10.56c-.88,1.38-1.76,2.8-2.58,4.25s-1.6,2.87-2.33,4.3c-1-2.4-1.79-4.81-2.48-7.14C667.62,383.22,670.1,382.74,672.66,382.36Zm-16.23,22.45c-6.34-2.71-10.45-6.26-10.45-9.07s4.11-6.39,10.45-9.08c1.55-.66,3.23-1.25,5-1.81a86.09,86.09,0,0,0,4,10.92,84.2,84.2,0,0,0-4,10.87c-1.77-.56-3.46-1.17-5-1.83Zm9.65,25.62c-2.44-1.4-3.5-6.72-2.67-13.57.2-1.69.52-3.46.91-5.27a88,88,0,0,0,11.39,2,86.41,86.41,0,0,0,7.46,9c-5.85,5.44-11.33,8.41-15.06,8.41a4.22,4.22,0,0,1-2-.48Zm42.53-13.66c.85,6.85-.2,12.17-2.61,13.59a4,4,0,0,1-2.07.47c-3.71,0-9.21-3-15.06-8.36a84.59,84.59,0,0,0,7.41-9,83.09,83.09,0,0,0,11.4-2,51.39,51.39,0,0,1,.93,5.22Zm6.9-12c-1.54.66-3.22,1.25-5,1.81a86.09,86.09,0,0,0-4-10.92,82.69,82.69,0,0,0,4-10.87q2.67.84,5,1.83c6.35,2.71,10.46,6.26,10.46,9.08s-4.13,6.38-10.47,9.07Z" transform="translate(0 0)"/><path id="Path_331" data-name="Path 331" class="cls-10" d="M668,356.63" transform="translate(0 0)"/><circle id="Ellipse_112" data-name="Ellipse 112" class="cls-10" cx="685.97" cy="395.74" r="8.19"/><path id="Path_332" data-name="Path 332" class="cls-10" d="M703.82,356.58" transform="translate(0 0)"/></g></g><circle class="cls-11" cx="286.6" cy="390.31" r="79.06"/><path class="cls-12" d="M285.86,461a82.12,82.12,0,0,1-28.13-4.54A67.24,67.24,0,0,1,232.2,441a72.8,72.8,0,0,1-14.5-19.64,100.42,100.42,0,0,1-7-18.55,3,3,0,0,1,3.08-4c3.62.13,7.26,0,10.89,0a2.83,2.83,0,0,1,3.08,2.3A58.38,58.38,0,0,0,238.68,422a62.26,62.26,0,0,0,75.56,16.51c15.95-7.93,26.45-20.43,31.62-37.19a2.88,2.88,0,0,1,3.2-2.4c3.66,0,7.33,0,11,0a2.85,2.85,0,0,1,3,3.83A81.72,81.72,0,0,1,356.5,420a78.41,78.41,0,0,1-13.38,18.42,74.76,74.76,0,0,1-27.41,17.69,71.17,71.17,0,0,1-18.06,4.27c-3.91.41-7.85.63-11.77.93Zm5.86-8.1A3.8,3.8,0,0,0,287.8,449a4,4,0,0,0-4.31,3.92,4.12,4.12,0,0,0,8.23,0Zm-36.72-1c.29.14.46.2.62.29.71.41,1.22.38,1.43-.54a6.81,6.81,0,0,1,.45-1.07c1.26,1.4,2.53,1.69,3.8.94a3.54,3.54,0,0,0,1.39-4,2.47,2.47,0,0,0-2.8-1.55l-2-1.17Zm-4.59-4.69c1.05,1.49,2.25,2,3.56,1.44a3.47,3.47,0,0,0,2-3.56c-.28-1.61-1.31-2.23-3.06-2.21l.16-.23-1.61-1-3.66,6.69,1.55.84Zm-5.1-10.63a4.24,4.24,0,0,0-2.63-3,2.26,2.26,0,0,0-2.64.69,2,2,0,0,0-.09,2.57c.29.47.7.89.94,1.38a3.63,3.63,0,0,1,.15,1.15c-.42-.1-1-.08-1.24-.34a12.7,12.7,0,0,1-1.29-1.91l-1.38.26a4.55,4.55,0,0,0,2,3.17,2.6,2.6,0,0,0,3.38,0c.86-.81.87-1.93,0-3.19a7.13,7.13,0,0,1-.79-1.15,2.73,2.73,0,0,1,0-1,3.18,3.18,0,0,1,1,.23,2.23,2.23,0,0,1,.65.77C244,437.28,244,437.28,245.31,436.62Zm67.93,8.4c-1.49-1-4.5-.37-5.58,1.68a4.09,4.09,0,0,0,2.09,5.53,4.13,4.13,0,0,0,5.33-2.41l-1.29-.6c-1.32,1.5-2.27,1.88-3.32,1.37a2.41,2.41,0,0,1-1.29-2.73c.12-.42.39-1,.73-1.12a21.26,21.26,0,0,1,2.91-.63Zm-46.52,9.15a3,3,0,0,0,3.18-3,3.17,3.17,0,0,0-3.29-3.12,3,3,0,0,0-3.19,3A3.15,3.15,0,0,0,266.72,454.17Zm67-16.69c.88-.76,1.65-1.48,2.49-2.12.54-.42.43-.71,0-1.11a3.06,3.06,0,0,0-3.37-.76,2.91,2.91,0,0,0-1.77,2.72,3.41,3.41,0,0,0,2.17,2.9c2.08.66,4.33-1,4-3-.65-.06-1.21-.18-1.49.73S334.68,437.84,333.7,437.48Zm-18.1,8.95c2-1.36,2.27-1.42,2.78-.64a13.91,13.91,0,0,0-1.89.95,1.73,1.73,0,0,0-.33,2.67,2.22,2.22,0,0,0,3.25-.21,1.59,1.59,0,0,1,.61-.42c.51-.19,1.05-.33,1.64-.51-.61-1.24-1.1-2.31-1.66-3.34a2.08,2.08,0,0,0-2.49-1.2,4.33,4.33,0,0,0-2.81,1.8Zm-66.74-6.31c-.63.92-1.2,1.73-1.75,2.55-.38.57-.81,1-1.53.51s-.43-1-.07-1.52l1.73-2.58-1.49-1c-.66,1-1.28,1.91-1.9,2.82s-1,1.56-.47,2.49a2.44,2.44,0,0,0,2.21,1.23,3.74,3.74,0,0,0,1.24,1.11c.13.06.59-.4.81-.68.44-.57.82-1.17,1.22-1.77s1-1.47,1.47-2.25Zm77.08,5c.72.7,1.06-.09,1.52-.24a.61.61,0,0,0,.16-.59c-.92-1.53-1.88-3-2.87-4.64l-1.5.92c.57.94,1.08,1.78,1.6,2.62.37.58.57,1.15-.18,1.57s-1.11-.06-1.44-.59c-.54-.86-1.08-1.71-1.65-2.63l-1.52.9,1.93,3.13a2.09,2.09,0,0,0,3.95-.45Zm-29.49,5.06c.15,1.08.26,2,.41,3,.11.7,0,1.29-.82,1.39s-1-.43-1.1-1.09c-.13-1-.29-2-.44-3.06l-1.73.23c.16,1.22.32,2.37.47,3.52.11.86.33,1.68,1.27,2a2.22,2.22,0,0,0,2.53-.71c.43.75,1.08.34,1.6.26.12,0,.24-.62.2-.94-.14-1.35-.39-2.68-.51-4-.07-.68-.36-.85-1-.72C297.11,450.07,296.87,450.1,296.45,450.16Zm31.61-10.64-.2-.44a5.06,5.06,0,0,1,1.3-.64c.71-.12.64-.53.58-1-.09-.65-.6-.54-.93-.37a7.87,7.87,0,0,0-2,1.25,1.57,1.57,0,0,0-.1,2.06,1.61,1.61,0,0,0,1.88.7c.4-.1.78-.25,1.18-.34s.55-.06,1-.11c-.54,1.18-1.54,1.11-2.33,1.35-.06,1.32.13,1.49,1.35,1.14a4.87,4.87,0,0,0,1.27-.58,2,2,0,0,0,.93-2.61c-.45-.87-1.24-1.09-2.54-.73C329,439.32,328.53,439.42,328.06,439.52ZM278.18,449l-1.67-.24a3.53,3.53,0,0,1-.21,1c-.13.25-.45.4-.74.63l-.13,1,.24,0a4.92,4.92,0,0,1,.27,1.18c0,.79-.19,1.59-.19,2.38s.85,1.48,2,1.39c.87-.06,1-.32.92-1.47-1,0-1.2-.07-1.15-.64.06-.76.21-1.5.31-2.24,1.53,0,1.53,0,1.41-1.35l-1.19-.29Zm-6.61.43-1.12,5.68,1.63.3c.73-1.46,0-3.83,2.78-3.81l.29-1.83-1.85.46C273.13,449.23,272.29,449.55,271.57,449.38Zm27.89.29c.35,1.61.76,3.12,1,4.66.14,1,.56,1.11,1.37.82.17-.06.34-.1.59-.17-.16-.8-.32-1.54-.46-2.29a1.69,1.69,0,0,1,.95-2,.84.84,0,0,0,.34-.68,7.31,7.31,0,0,0-.34-1.39l-1.54,1.24C300.92,448.82,300.19,449.67,299.46,449.67Z" transform="translate(0 0)"/><path class="cls-12" d="M234.5,386c.07-28.46,23.36-50.34,50.49-51.16,30.29-.91,54.48,23.22,54,52-.46,27.61-23.21,50.44-52.16,50.5S234.51,414.43,234.5,386Zm53.95-49.29c-26.72-1-51.19,19.45-52,48.08-.78,26,19.6,49,47.63,50.63,26.9,1.53,52.41-18.94,53.07-48.59C337.67,361.52,317.49,337.83,288.45,336.69Z" transform="translate(0 0)"/><path class="cls-12" d="M226.25,385.34c1.08.49,2.15,1,3.24,1.45a1.41,1.41,0,0,1,.12,2.47,20.38,20.38,0,0,0-3.14,1.86h2.06c.54,0,1.07,0,1.61-.07,1.19-.07,1.24,0,1.28,1.11.05,1.52.05,1.5-1.51,1.55-2.59.07-5.17.17-7.75.25-1.27,0-1.19,0-1.36-1.16a1.85,1.85,0,0,1,1.28-2.21c1.5-.7,2.92-1.53,4.57-2.41-.44-.24-.69-.39-1-.52-1.48-.68-3-1.34-4.45-2-.66-.31-1.11-2.24-.63-2.76a1.2,1.2,0,0,1,.77-.24q4.29-.18,8.6-.3c1,0,1.09.1,1.16,1.3,0,.8,0,1.42-1.09,1.37s-2.49,0-3.74,0Z" transform="translate(0 0)"/><path class="cls-12" d="M345.6,369.89l4.12-1.27c1.14-.37,1.15-.37,1.51.77.07.24.15.47.23.71.17.48,0,.76-.49.91-2.91.92-5.82,1.84-8.74,2.74a.85.85,0,0,1-.68-.11,2.46,2.46,0,0,1-.31-2.39c1-1.47,2-2.93,3-4.4a2.6,2.6,0,0,0,.48-1.1L340.81,367a1.51,1.51,0,0,1-2.08-1.75c0-.24.43-.5.71-.6,2.63-.86,5.27-1.7,7.92-2.5.43-.14,1.25-.2,1.34,0,.35.68.9,1.41.34,2.24l-2.86,4.25c-.25.39-.49.78-.74,1.16Z" transform="translate(0 0)"/><path class="cls-12" d="M228.28,368c1.67.57,3.05,1.08,4.45,1.51.79.25,1,.63.67,1.37a4.8,4.8,0,0,0-.28.78.68.68,0,0,1-1,.5c-2.85-1-5.71-2-8.56-3a.69.69,0,0,1-.5-1,2.42,2.42,0,0,1,1.81-1.88c1.87-.52,3.69-1.22,5.79-1.93-.49-.21-.75-.33-1-.43-1.21-.43-2.42-.88-3.65-1.27-.6-.19-.73-.51-.54-1,0-.06.05-.11.07-.17.53-1.57.53-1.57,2.16-1,2.34.82,4.69,1.61,7,2.46.47.17,1.36.1,1.19.9s-.23,1.64-1.29,2c-1.87.56-3.7,1.23-5.54,1.87C228.89,367.69,228.72,367.77,228.28,368Z" transform="translate(0 0)"/><path class="cls-12" d="M353,379c0,3.54-2.94,5.78-6.41,5.21a4.53,4.53,0,0,1-4.13-4.06c-.2-1.34-.34-2.69-.52-4-.1-.68.07-1,.86-1.08,2.88-.29,5.76-.65,8.64-1,.66-.09,1,.05,1.06.76C352.61,376.3,352.83,377.82,353,379Zm-4.13-2c-.66.07-1.31.13-2,.22-2.22.33-2.29-.24-1.84,2.42a2.13,2.13,0,0,0,2.19,1.89c1.49.09,2.67-.5,3-1.61a5.9,5.9,0,0,0,0-1.83C350.12,376.91,350.07,376.89,348.84,377Z" transform="translate(0 0)"/><path class="cls-12" d="M331.94,352.65a5.1,5.1,0,0,1-3.64-5.59,5.32,5.32,0,0,1,4.55-4.65,5.57,5.57,0,0,1,6.12,3.46,10.36,10.36,0,0,1,.39,2.44c.06.47-.21.7-.69.59a6.32,6.32,0,0,1-1.53-.46c-.23-.13-.35-.57-.4-.9A3,3,0,0,0,333.3,345,2.84,2.84,0,0,0,331,348.4a2.51,2.51,0,0,0,3.16,2c-.38-.45-.69-.9-1.07-1.28-.64-.64-.11-1,.32-1.33s.84-.83,1.41-.15c.73.89,1.49,1.76,2.25,2.62a.71.71,0,0,1-.11,1.18c-1.05.83-2.06,1.72-3.13,2.53-.34.26-1,.56-1.23.41C332.11,354,331.42,353.51,331.94,352.65Z" transform="translate(0 0)"/><path class="cls-12" d="M261.48,330.29c-.44-.89-.83-1.66-1.21-2.44-.48-1-.46-1,1-1.72.78-.39,1.11-.13,1.45.56,1.2,2.47,2.43,4.94,3.7,7.39.4.77.25,1.15-.55,1.48-1.47.62-1.45.65-2.16-.75l-.12-.25c-.91-1.83-.92-1.85-2.83-.9-2.25,1.14-2.14.54-1,2.88.77,1.59.6,2-1.17,2.43a1,1,0,0,1-.79-.39q-2.08-4.05-4.06-8.14c-.09-.19.17-.54.28-.82,0,0,.05,0,.08,0,1.71-1,1.71-1,2.59.8,1,1.95,1,1.95,3,1,.43-.2.87-.38,1.28-.61A2.79,2.79,0,0,0,261.48,330.29Z" transform="translate(0 0)"/><path class="cls-12" d="M224.71,372.45c-.25,1.47-.46,2.66-.66,3.84-.09.52-.14,1,.61,1.09s.84-.35.92-.86c.14-.86.3-1.71.42-2.56.09-.68.51-.8,1.08-.63s1.5-.15,1.35.95-.3,1.89-.45,2.83c-.07.45,0,.8.55.88s.72-.22.79-.67c.2-1.19.45-2.36.59-3.56.08-.71.44-.84,1.08-.78,1.59.16,1.68.26,1.41,1.83-.29,1.76-.59,3.53-.86,5.3-.11.76-.42,1-1.26.87-2.79-.49-5.59-.93-8.4-1.36-.73-.11-1-.32-.87-1.13.38-2,.69-4,1-6,.1-.63.4-.86,1-.74a3.41,3.41,0,0,1,.93.16A3.85,3.85,0,0,1,224.71,372.45Z" transform="translate(0 0)"/><path class="cls-12" d="M311.75,326.16c-.4.89-.72,1.7-1.12,2.46s-.27,1.12.53,1.4a22.36,22.36,0,0,1,2.25,1c.55.26.87.17,1.1-.41a15.46,15.46,0,0,1,1.05-2.26,1.07,1.07,0,0,1,.94-.38c1.82.54,1.87.66,1.12,2.32-1.06,2.37-2.15,4.73-3.2,7.11-.28.62-.61.75-1.24.49-1.68-.69-1.68-.67-.94-2.3,1.08-2.36,1.12-1.84-1.12-2.82-1.95-.85-2-.82-2.83,1.07,0,.06-.05.12-.08.17-.61,1.34-1.62,1.55-2.68.5a.89.89,0,0,1-.11-.81c1.2-2.72,2.44-5.42,3.65-8.14a.66.66,0,0,1,1-.38,11.16,11.16,0,0,1,1.12.49A2.38,2.38,0,0,1,311.75,326.16Z" transform="translate(0 0)"/><path class="cls-12" d="M275.77,332.26c-.12.09-.3.37-.54.44-2.12.61-4.24,1.18-6.36,1.77-.56.15-.88,0-1.05-.57-.77-2.77-1.58-5.52-2.39-8.28-.2-.66-.05-1,.69-1.2,2-.51,4-1.08,6-1.66.67-.2,1,0,1.16.63a2.34,2.34,0,0,0,.17.53c.4.86,0,1.22-.84,1.42-1.1.25-2.17.62-3.27.89-.6.14-.79.4-.62,1s.5.61,1,.46c.84-.26,1.7-.46,2.54-.72s1.13,0,1.26.75.63,1.33-.54,1.57c-.86.17-1.7.47-2.55.69-.48.13-.8.3-.63.9s.6.51,1,.39c.94-.25,1.87-.52,2.81-.78C275.13,330.06,275.8,330.57,275.77,332.26Z" transform="translate(0 0)"/><path class="cls-12" d="M276.11,332.33c.09-.42.12-.68.2-.94.89-2.95,1.81-5.89,2.66-8.85a1.18,1.18,0,0,1,1.31-1,7.26,7.26,0,0,1,1-.08,1.41,1.41,0,0,1,.9.45c1.66,3,3.27,6.1,5,9.38-.77.09-1.4.11-2,.24-.81.17-1.1-.28-1.44-.86a1.26,1.26,0,0,0-.92-.43c-.65,0-1.31.12-2,.16-.88.06-1.73.12-1.82,1.28a.74.74,0,0,1-.5.47C277.8,332.23,277,332.26,276.11,332.33Zm6.27-4.53-1.29-2.61-.22,0-.74,2.81Z" transform="translate(0 0)"/><path class="cls-12" d="M248,346.76a15.44,15.44,0,0,1-1.46,1.67,1.41,1.41,0,0,1-1.1.13,1.19,1.19,0,0,0-1.4.43,18.27,18.27,0,0,1-1.22,1.42c-.57.6-1,1.19-.34,2a.61.61,0,0,1,0,.6c-.48.65-1,1.27-1.66,2.05l-2.53-4.66c-.82-1.53-1.62-3.07-2.46-4.58a1.11,1.11,0,0,1,.33-1.48c.48-.45.73-1.31,1.7-1l9.68,3.12A2.91,2.91,0,0,1,248,346.76Zm-7.32,2.43,1.45-1.74-2.78-1-.12.22Z" transform="translate(0 0)"/><path class="cls-12" d="M338.43,364.45a15.56,15.56,0,0,1-1.12-2.05,1.39,1.39,0,0,1,.29-1.06,1,1,0,0,0,.09-1.34,17.35,17.35,0,0,1-.91-1.63c-.38-.77-.78-1.39-1.85-1.13-.21.06-.61-.19-.76-.41-.39-.55-.69-1.17-1.11-1.89.43-.1.73-.21,1-.25l9-1.09c.71-.09,1.34-.13,1.74.69s1,1.47.08,2.45c-1.9,2.1-3.64,4.34-5.45,6.52C339.2,363.61,338.89,363.94,338.43,364.45Zm3.47-8.08c-.7.06-1.08.06-1.44.13s-1,.25-1.5.38c.26.53.52,1.06.79,1.59,0,0,.06,0,.23.08Z" transform="translate(0 0)"/><path class="cls-12" d="M343,384.78c.81.39,1.43.67,2,1,2.48,1.2,4.94,2.45,7.45,3.59,1.11.51.61,1.33.66,2.06a1.1,1.1,0,0,1-1,1.25c-3,.88-6,1.84-9,2.76a9.71,9.71,0,0,1-1,.2,16.5,16.5,0,0,1,.15-2.22,1.17,1.17,0,0,1,.72-.69,1.13,1.13,0,0,0,1-1.26,11.24,11.24,0,0,1,.14-1.74c.13-.86.08-1.6-1-1.9a.62.62,0,0,1-.36-.48C342.87,386.54,343,385.76,343,384.78Zm6.29,6.12v-.26l-2.63-1.23-.14,2.25Z" transform="translate(0 0)"/><path class="cls-12" d="M324.59,345a5.48,5.48,0,0,1-4.33-3,4,4,0,0,1,.56-4.67c1.1-1.43,2.27-2.8,3.4-4.21a.69.69,0,0,1,1.11-.14c1.57,1.1,1.59,1.14.41,2.59-.9,1.11-1.85,2.18-2.7,3.33a1.88,1.88,0,0,0,.57,3,2,2,0,0,0,2.9-.53c1-1.18,1.95-2.42,3-3.6.25-.29.82-.72,1-.63a8.25,8.25,0,0,1,1.62,1.34c.06.07-.12.45-.26.63-1.13,1.41-2.26,2.81-3.43,4.19A4.78,4.78,0,0,1,324.59,345Z" transform="translate(0 0)"/><path class="cls-12" d="M298.37,322l3.89.93c1.26.3,2.51.62,3.77.87.78.16,1,.55.75,1.25a4.74,4.74,0,0,0-.18.72c-.09.62-.46.75-1,.61s-1.1-.25-1.65-.4-.8,0-.93.58c-.48,2-1,4-1.47,6-.14.64-.45.81-1.06.64-2-.54-1.86-.22-1.38-2.15.41-1.64.78-3.3,1.23-4.94.2-.75,0-1.11-.78-1.18a5.13,5.13,0,0,1-.65-.16c-1.53-.34-1.84-1-1.07-2.38C297.93,322.22,298.22,322.12,298.37,322Z" transform="translate(0 0)"/><path class="cls-12" d="M233.89,351.37c-.18.32-.4.72-.64,1.12-.81,1.37-.81,1.36.57,2.13,1.56.86,3.1,1.77,4.67,2.61.68.36.88.74.39,1.37a3.68,3.68,0,0,0-.37.64c-.29.59-.65.73-1.28.36-1.73-1-3.5-1.94-5.23-3-.72-.43-1.13-.33-1.44.42a4.62,4.62,0,0,1-.28.48c-.82,1.41-1.42,1.52-2.63.38a.91.91,0,0,1-.12-.86c1.28-2.26,2.61-4.5,3.93-6.74a.72.72,0,0,1,.25-.27C232.17,349.77,233.89,350.74,233.89,351.37Z" transform="translate(0 0)"/><path class="cls-12" d="M290.68,329.1c1.43.13,2.74.28,4.06.34.71,0,1,.3.87,1a3.61,3.61,0,0,1-.13,1c-.13.26-.49.6-.73.58-2.1-.11-4.21-.3-6.31-.46-.55,0-.76-.31-.71-.85q.38-4.38.72-8.75c0-.58.27-.86.9-.74a3.74,3.74,0,0,0,.75,0c.82,0,1.1.32,1,1.13-.19,1.9-.3,3.81-.43,5.72C290.67,328.37,290.68,328.67,290.68,329.1Z" transform="translate(0 0)"/><path class="cls-12" d="M244.07,336.66a3.46,3.46,0,0,0,.38.84c1.27,1.53,2.59,3,3.85,4.56.48.59.85.66,1.44.12.77-.72,1.64-1.34,2.45-2,.48-.41.88-.45,1.24.12a1.49,1.49,0,0,0,.12.14c1,1.18,1,1.18-.23,2.18s-2.73,2.19-4.06,3.31c-.53.45-.88.41-1.32-.12q-2.77-3.33-5.62-6.61c-.46-.53-.4-.91.16-1.29S243.31,337.25,244.07,336.66Z" transform="translate(0 0)"/><path class="cls-13" d="M291.72,452.94a4.12,4.12,0,0,1-8.23,0A4,4,0,0,1,287.8,449,3.8,3.8,0,0,1,291.72,452.94Zm-4.08,2.25a2.24,2.24,0,0,0,2.24-2.24,2.31,2.31,0,0,0-2.27-2.35,2.3,2.3,0,0,0,0,4.59Z" transform="translate(0 0)"/><path class="cls-13" d="M255,451.94l2.9-7.09,2,1.17a2.47,2.47,0,0,1,2.8,1.55,3.54,3.54,0,0,1-1.39,4c-1.27.75-2.54.46-3.8-.94a6.81,6.81,0,0,0-.45,1.07c-.21.92-.72.95-1.43.54C255.46,452.14,255.29,452.08,255,451.94Zm4.73-4.65a1.68,1.68,0,0,0-1.48,1.64,1.38,1.38,0,0,0,1.34,1.38,1.68,1.68,0,0,0,1.47-1.74A1.33,1.33,0,0,0,259.73,447.29Z" transform="translate(0 0)"/><path class="cls-13" d="M250.41,447.25l-1.08,1.93-1.55-.84,3.66-6.69,1.61,1-.16.23c1.75,0,2.78.6,3.06,2.21a3.47,3.47,0,0,1-2,3.56C252.66,449.21,251.46,448.74,250.41,447.25Zm2.51-3.05a1.72,1.72,0,0,0-1.56,1.68,1.33,1.33,0,0,0,1.27,1.34,1.75,1.75,0,0,0,1.57-1.67A1.37,1.37,0,0,0,252.92,444.2Z" transform="translate(0 0)"/><path class="cls-13" d="M245.31,436.62c-1.33.66-1.32.66-2-.41a2.23,2.23,0,0,0-.65-.77,3.18,3.18,0,0,0-1-.23,2.73,2.73,0,0,0,0,1,7.13,7.13,0,0,0,.79,1.15c.86,1.26.85,2.38,0,3.19a2.6,2.6,0,0,1-3.38,0,4.55,4.55,0,0,1-2-3.17l1.38-.26a12.7,12.7,0,0,0,1.29,1.91c.25.26.82.24,1.24.34a3.63,3.63,0,0,0-.15-1.15c-.24-.49-.65-.91-.94-1.38a2,2,0,0,1,.09-2.57,2.26,2.26,0,0,1,2.64-.69A4.24,4.24,0,0,1,245.31,436.62Z" transform="translate(0 0)"/><path class="cls-13" d="M313.24,445l-.42,1.09a21.26,21.26,0,0,0-2.91.63c-.34.13-.61.7-.73,1.12a2.41,2.41,0,0,0,1.29,2.73c1,.51,2,.13,3.32-1.37l1.29.6a4.13,4.13,0,0,1-5.33,2.41,4.09,4.09,0,0,1-2.09-5.53C308.74,444.65,311.75,444,313.24,445Z" transform="translate(0 0)"/><path class="cls-13" d="M266.72,454.17a3.15,3.15,0,0,1-3.3-3.11,3,3,0,0,1,3.19-3,3.17,3.17,0,0,1,3.29,3.12A3,3,0,0,1,266.72,454.17Zm-.06-1.54a1.55,1.55,0,0,0,1.5-1.57,1.48,1.48,0,0,0-1.53-1.44,1.54,1.54,0,0,0-1.44,1.54A1.47,1.47,0,0,0,266.66,452.63Z" transform="translate(0 0)"/><path class="cls-13" d="M333.7,437.48c1,.36,1.82.13,2.07-.68s.84-.79,1.49-.73c.31,2-1.94,3.7-4,3a3.41,3.41,0,0,1-2.17-2.9,2.91,2.91,0,0,1,1.77-2.72,3.06,3.06,0,0,1,3.37.76c.41.4.52.69,0,1.11C335.35,436,334.58,436.72,333.7,437.48Zm.89-2.34c-.53-.46-1-.54-1.52-.07a1,1,0,0,0-.15,1.49c.21-.16.38-.28.54-.42Z" transform="translate(0 0)"/><path class="cls-13" d="M315.6,446.43l-.9-.9a4.33,4.33,0,0,1,2.81-1.8,2.08,2.08,0,0,1,2.49,1.2c.56,1,1.05,2.1,1.66,3.34-.59.18-1.13.32-1.64.51a1.59,1.59,0,0,0-.61.42,2.22,2.22,0,0,1-3.25.21,1.73,1.73,0,0,1,.33-2.67,13.91,13.91,0,0,1,1.89-.95C317.87,445,317.58,445.07,315.6,446.43Zm4,1.11c-.5-.35-.81-.67-.91-.62a11.48,11.48,0,0,0-1.34,1c.21.21.52.65.61.61A13.67,13.67,0,0,0,319.65,447.54Z" transform="translate(0 0)"/><path class="cls-13" d="M248.86,440.12l1.47.94c-.5.78-1,1.52-1.47,2.25s-.78,1.2-1.22,1.77c-.22.28-.68.74-.81.68a3.74,3.74,0,0,1-1.24-1.11,2.44,2.44,0,0,1-2.21-1.23c-.52-.93-.06-1.72.47-2.49s1.24-1.83,1.9-2.82l1.49,1-1.73,2.58c-.36.53-.63,1.06.07,1.52s1.15.06,1.53-.51C247.66,441.85,248.23,441,248.86,440.12Z" transform="translate(0 0)"/><path class="cls-13" d="M325.94,445.1a2.09,2.09,0,0,1-3.95.45l-1.93-3.13,1.52-.9c.57.92,1.11,1.77,1.65,2.63.33.53.72,1,1.44.59s.55-1,.18-1.57c-.52-.84-1-1.68-1.6-2.62l1.5-.92c1,1.59,1.95,3.11,2.87,4.64a.61.61,0,0,1-.16.59C327,445,326.66,445.8,325.94,445.1Z" transform="translate(0 0)"/><path class="cls-13" d="M296.45,450.16c.42-.06.66-.09.91-.14.61-.13.9,0,1,.72.12,1.35.37,2.68.51,4,0,.32-.08.92-.2.94-.52.08-1.17.49-1.6-.26a2.22,2.22,0,0,1-2.53.71c-.94-.31-1.16-1.13-1.27-2-.15-1.15-.31-2.3-.47-3.52l1.73-.23c.15,1.07.31,2.06.44,3.06.08.66.33,1.19,1.1,1.09s.93-.69.82-1.39C296.71,452.21,296.6,451.24,296.45,450.16Z" transform="translate(0 0)"/><path class="cls-13" d="M328.06,439.52c.47-.1.94-.2,1.4-.33,1.3-.36,2.09-.14,2.54.73a2,2,0,0,1-.93,2.61,4.87,4.87,0,0,1-1.27.58c-1.22.35-1.41.18-1.35-1.14.79-.24,1.79-.17,2.33-1.35-.48.05-.76.05-1,.11s-.78.24-1.18.34a1.61,1.61,0,0,1-1.88-.7,1.57,1.57,0,0,1,.1-2.06,7.87,7.87,0,0,1,2-1.25c.33-.17.84-.28.93.37.06.48.13.89-.58,1a5.06,5.06,0,0,0-1.3.64Z" transform="translate(0 0)"/><path class="cls-13" d="M278.18,449l-.09,1.36,1.19.29c.12,1.35.12,1.35-1.41,1.35-.1.74-.25,1.48-.31,2.24-.05.57.12.64,1.15.64.11,1.15,0,1.41-.92,1.47-1.19.09-2-.45-2-1.39s.18-1.59.19-2.38a4.92,4.92,0,0,0-.27-1.18l-.24,0,.13-1c.29-.23.61-.38.74-.63a3.53,3.53,0,0,0,.21-1Z" transform="translate(0 0)"/><path class="cls-13" d="M271.57,449.38c.72.17,1.56-.15,1.73.8l1.85-.46-.29,1.83c-2.79,0-2.05,2.35-2.78,3.81l-1.63-.3Z" transform="translate(0 0)"/><path class="cls-13" d="M299.46,449.67c.73,0,1.46-.85,1.9.18l1.54-1.24a7.31,7.31,0,0,1,.34,1.39.84.84,0,0,1-.34.68,1.69,1.69,0,0,0-.95,2c.14.75.3,1.49.46,2.29-.25.07-.42.11-.59.17-.81.29-1.23.14-1.37-.82C300.22,452.79,299.81,451.28,299.46,449.67Z" transform="translate(0 0)"/><path class="cls-13" d="M288.45,336.69c29,1.14,49.22,24.83,48.65,50.12-.66,29.65-26.17,50.12-53.07,48.59-28-1.6-48.41-24.62-47.63-50.63C237.26,356.14,261.73,335.69,288.45,336.69ZM306.8,370a34.84,34.84,0,0,0-2.2-12.06c-1.88-4.7-4.63-8.83-9.11-11.6a14,14,0,0,0-13.8-.92,18.88,18.88,0,0,0-7.74,6.75,30.11,30.11,0,0,0-5,14.48,33.64,33.64,0,0,0,1.58,14.05c1.73,5.22,4.59,9.66,9.34,12.75a13.91,13.91,0,0,0,9.81,2.25,16.72,16.72,0,0,0,10.62-6.37C304.92,383.7,306.54,377.1,306.8,370Zm-20.24,41.13c0-.76,0-1.43,0-2.1a9,9,0,0,0-2-6.4,15.85,15.85,0,0,0-5.36-4.33,59.91,59.91,0,0,0-6-2.29,14,14,0,0,1-5.08-2.76c-1.31-1.15-2.7-2.23-4.07-3.32a1.84,1.84,0,0,0-2.47-.27c-.65.52-.74,1.33,0,2.33a15.9,15.9,0,0,0,2.56,2.81c1.72,1.4,3.56,2.65,5.36,3.94.49.35,1,.69.56,1.33s-1,.36-1.48,0-1.3-.77-1.91-1.19c-3.27-2.28-6.16-4.83-7.88-8.54-1.33-2.85-3.1-5.51-4.7-8.24a1.53,1.53,0,0,0-2.15-.73,1.56,1.56,0,0,0-.77,2.05c.05.15.11.29.16.43,2.05,5.34,4.12,10.68,6.15,16a6.69,6.69,0,0,0,4.22,4.08c3.54,1.3,7.07,2.63,10.6,4a5.85,5.85,0,0,1,3.07,2.64,1.32,1.32,0,0,0,.91.53c2.3,0,4.61,0,6.91,0Zm2.65,0c3.39,0,6.8,0,10.2,0a1,1,0,0,0,.67-.45,6.17,6.17,0,0,1,3.3-2.77c2.94-1.09,5.88-2.21,8.82-3.31.74-.28,1.49-.53,2.21-.84a6.13,6.13,0,0,0,3.48-3.47q3.23-8.34,6.39-16.71a1.56,1.56,0,0,0-.76-2.19,1.54,1.54,0,0,0-2.12.81c-1.72,2.95-3.54,5.85-5.06,8.89-2.13,4.28-5.86,6.84-9.79,9.22a1.23,1.23,0,0,1-1.09-.3c-.14-.15.07-.71.24-1s.47-.3.7-.46c1.75-1.31,3.57-2.53,5.22-3.95a16.71,16.71,0,0,0,2.55-3.06,1.24,1.24,0,0,0-.29-1.88,1.7,1.7,0,0,0-2.18.12c-.74.58-1.5,1.14-2.18,1.78a22.06,22.06,0,0,1-9.23,5.21,20.91,20.91,0,0,0-5.14,2.27C290.64,401.75,288.11,405.56,289.21,411.11Zm-23.32,9.09.23-.06c.63,1.23,1.28,2.46,1.88,3.71a1.33,1.33,0,0,0,1.29.84,1.64,1.64,0,0,0,1.86-1.15c.5-1.16,1.14-2.26,1.72-3.39l.23.07c0,1.23,0,2.45,0,3.67,0,2.22-.3,1.89,2,2,.86,0,1.17-.22,1.16-1.09-.05-3,0-5.92,0-8.88,0-2.13,0-2.1-2.21-2.14a1.39,1.39,0,0,0-1.46.89c-.62,1.31-1.31,2.6-2,3.89l-1.14,2.12c-.92-1.77-1.72-3.33-2.52-4.88-1.24-2.4-.57-1.92-3.29-2-.78,0-1,.25-1,1,0,3,0,6,0,9.06,0,2.26-.55,2,2.18,2.08.81,0,1-.31,1-1.05C265.86,423.27,265.89,421.73,265.89,420.2Zm28.75-.38h0c0-1.73,0-3.46,0-5.19,0-.62-.16-.87-.85-.88-2.32,0-2.32-.06-2.32,2.2V416c0,2.38,0,2.38-2.39,2.38-2.66,0-2.65,0-2.66-2.65,0-2.38.29-1.93-2.05-2-.89,0-1.13.27-1.12,1.11,0,3,0,5.92,0,8.89,0,2.36-.46,2.07,2.25,2.1.64,0,.92-.21.9-.85,0-1,0-1.92,0-2.87,0-.54.22-.8.79-.79s1.26,0,1.89,0c2.73,0,2.32-.3,2.36,2.33s-.35,2.09,2.27,2.19c.64,0,.91-.2.9-.85C294.62,423.27,294.64,421.54,294.64,419.82Zm6.82-1.84h-.08a28.28,28.28,0,0,0,.29,4.13c.61,2.78,3.2,4.33,6.27,3.95a5.21,5.21,0,0,0,4.91-5.27c0-1.76,0-3.51,0-5.27s0-1.77-1.81-1.77c-1.36,0-1.36,0-1.36,1.37,0,1.85,0,3.7,0,5.55a2.27,2.27,0,0,1-2.52,2.39,2.17,2.17,0,0,1-2.47-2.31c-.08-1.6-.05-3.2-.08-4.8-.06-2.62.47-2.13-2.32-2.21-.61,0-.85.22-.84.81C301.47,415.7,301.46,416.84,301.46,418Zm-3.35,4.24a2,2,0,1,0,0,3.9,2,2,0,1,0,0-3.9Zm-16.34,1.94a2,2,0,0,0-2-1.93,1.91,1.91,0,0,0-2,2,2,2,0,0,0,1.92,1.9A2,2,0,0,0,281.77,424.16Z" transform="translate(0 0)"/><path class="cls-12" d="M287.64,455.19a2.3,2.3,0,0,1,0-4.59,2.31,2.31,0,0,1,2.27,2.35A2.24,2.24,0,0,1,287.64,455.19Z" transform="translate(0 0)"/><path class="cls-12" d="M259.73,447.29a1.33,1.33,0,0,1,1.33,1.28,1.68,1.68,0,0,1-1.47,1.74,1.38,1.38,0,0,1-1.34-1.38A1.68,1.68,0,0,1,259.73,447.29Z" transform="translate(0 0)"/><path class="cls-12" d="M252.92,444.2a1.37,1.37,0,0,1,1.28,1.35,1.75,1.75,0,0,1-1.57,1.67,1.33,1.33,0,0,1-1.27-1.34A1.72,1.72,0,0,1,252.92,444.2Z" transform="translate(0 0)"/><path class="cls-12" d="M266.66,452.63a1.47,1.47,0,0,1-1.47-1.47,1.54,1.54,0,0,1,1.44-1.54,1.48,1.48,0,0,1,1.53,1.44A1.55,1.55,0,0,1,266.66,452.63Z" transform="translate(0 0)"/><path class="cls-12" d="M334.59,435.14l-1.13,1c-.16.14-.33.26-.54.42a1,1,0,0,1,.15-1.49C333.57,434.6,334.06,434.68,334.59,435.14Z" transform="translate(0 0)"/><path class="cls-12" d="M319.65,447.54a13.67,13.67,0,0,1-1.64,1c-.09,0-.4-.4-.61-.61a11.48,11.48,0,0,1,1.34-1C318.84,446.87,319.15,447.19,319.65,447.54Z" transform="translate(0 0)"/><path d="M306.8,370c-.26,7.12-1.88,13.72-6.49,19.33a16.72,16.72,0,0,1-10.62,6.37,13.91,13.91,0,0,1-9.81-2.25c-4.75-3.09-7.61-7.53-9.34-12.75A33.64,33.64,0,0,1,269,366.63a30.11,30.11,0,0,1,5-14.48,18.88,18.88,0,0,1,7.74-6.75,14,14,0,0,1,13.8.92c4.48,2.77,7.23,6.9,9.11,11.6A34.84,34.84,0,0,1,306.8,370Zm-17.49,22.84a5,5,0,0,0,.74,0,12,12,0,0,0,5.39-2.55,22.1,22.1,0,0,0,6.95-10.59,30.7,30.7,0,0,0-1.25-22.55,18.23,18.23,0,0,0-7.36-8.58,10.45,10.45,0,0,0-4.47-1.6Zm-3,.2V353.73a5.08,5.08,0,0,1-3.67,1.08,4.09,4.09,0,0,0-4.2,2.4c-.45.82-.82,1.67-1.22,2.51a5.41,5.41,0,0,1-4,3.17,1.07,1.07,0,0,0-1,1,29.73,29.73,0,0,0,3.13,20.7c1.79,3.16,4.12,5.93,7.67,7.4C284.09,392.41,285.25,392.67,286.35,393Zm-.4-45.94c-4.43-.21-12.83,8.47-12.43,12.81a4.81,4.81,0,0,0,1.85-2.61,7.32,7.32,0,0,1,7.46-5.22,3,3,0,0,0,2.42-1.21C286.19,349.72,286,348.43,286,347.08Z" transform="translate(0 0)"/><path d="M286.56,411.11h-3.32c-2.3,0-4.61,0-6.91,0a1.32,1.32,0,0,1-.91-.53,5.85,5.85,0,0,0-3.07-2.64c-3.53-1.33-7.06-2.66-10.6-4a6.69,6.69,0,0,1-4.22-4.08c-2-5.34-4.1-10.68-6.15-16,0-.14-.11-.28-.16-.43a1.56,1.56,0,0,1,.77-2.05,1.53,1.53,0,0,1,2.15.73c1.6,2.73,3.37,5.39,4.7,8.24,1.72,3.71,4.61,6.26,7.88,8.54.61.42,1.28.78,1.91,1.19s1.05.59,1.48,0-.07-1-.56-1.33c-1.8-1.29-3.64-2.54-5.36-3.94a15.9,15.9,0,0,1-2.56-2.81c-.74-1-.65-1.81,0-2.33a1.84,1.84,0,0,1,2.47.27c1.37,1.09,2.76,2.17,4.07,3.32a14,14,0,0,0,5.08,2.76,59.91,59.91,0,0,1,6,2.29,15.85,15.85,0,0,1,5.36,4.33,9,9,0,0,1,2,6.4C286.54,409.68,286.56,410.35,286.56,411.11Z" transform="translate(0 0)"/><path d="M289.21,411.11c-1.1-5.55,1.43-9.36,5.94-12.12a20.91,20.91,0,0,1,5.14-2.27,22.06,22.06,0,0,0,9.23-5.21c.68-.64,1.44-1.2,2.18-1.78a1.7,1.7,0,0,1,2.18-.12,1.24,1.24,0,0,1,.29,1.88,16.71,16.71,0,0,1-2.55,3.06c-1.65,1.42-3.47,2.64-5.22,3.95-.23.16-.58.25-.7.46s-.38.86-.24,1a1.23,1.23,0,0,0,1.09.3c3.93-2.38,7.66-4.94,9.79-9.22,1.52-3,3.34-5.94,5.06-8.89a1.54,1.54,0,0,1,2.12-.81,1.56,1.56,0,0,1,.76,2.19q-3.18,8.37-6.39,16.71a6.13,6.13,0,0,1-3.48,3.47c-.72.31-1.47.56-2.21.84-2.94,1.1-5.88,2.22-8.82,3.31a6.17,6.17,0,0,0-3.3,2.77,1,1,0,0,1-.67.45C296,411.12,292.6,411.11,289.21,411.11Z" transform="translate(0 0)"/><path class="cls-12" d="M265.89,420.2c0,1.53,0,3.07,0,4.6,0,.74-.18,1.06-1,1.05-2.73,0-2.15.18-2.18-2.08,0-3,0-6,0-9.06,0-.71.17-1,1-1,2.72.09,2-.39,3.29,2,.8,1.55,1.6,3.11,2.52,4.88l1.14-2.12c.67-1.29,1.36-2.58,2-3.89a1.39,1.39,0,0,1,1.46-.89c2.21,0,2.21,0,2.21,2.14,0,3,0,5.92,0,8.88,0,.87-.3,1.12-1.16,1.09-2.33-.07-2,.26-2-2,0-1.22,0-2.44,0-3.67l-.23-.07c-.58,1.13-1.22,2.23-1.72,3.39a1.64,1.64,0,0,1-1.86,1.15,1.33,1.33,0,0,1-1.29-.84c-.6-1.25-1.25-2.48-1.88-3.71Z" transform="translate(0 0)"/><path class="cls-12" d="M294.64,419.82c0,1.72,0,3.45,0,5.18,0,.65-.26.88-.9.85-2.62-.1-2.24.39-2.27-2.19s.37-2.31-2.36-2.33c-.63,0-1.26,0-1.89,0s-.79.25-.79.79c0,.95,0,1.91,0,2.87,0,.64-.26.86-.9.85-2.71,0-2.23.26-2.25-2.1,0-3,0-5.93,0-8.89,0-.84.23-1.15,1.12-1.11,2.34.1,2-.35,2.05,2,0,2.65,0,2.65,2.66,2.65,2.39,0,2.39,0,2.39-2.38V416c0-2.26,0-2.24,2.32-2.2.69,0,.86.26.85.88,0,1.73,0,3.46,0,5.19Z" transform="translate(0 0)"/><path class="cls-12" d="M301.46,418c0-1.14,0-2.28,0-3.42,0-.59.23-.82.84-.81,2.79.08,2.26-.41,2.32,2.21,0,1.6,0,3.2.08,4.8a2.17,2.17,0,0,0,2.47,2.31,2.27,2.27,0,0,0,2.52-2.39c.05-1.85,0-3.7,0-5.55,0-1.37,0-1.37,1.36-1.37,1.81,0,1.81,0,1.81,1.77s0,3.51,0,5.27a5.21,5.21,0,0,1-4.91,5.27c-3.07.38-5.66-1.17-6.27-3.95a28.28,28.28,0,0,1-.29-4.13Z" transform="translate(0 0)"/><path d="M298.11,422.22a2,2,0,1,1,0,3.9,2,2,0,1,1,0-3.9Z" transform="translate(0 0)"/><path d="M281.77,424.16a2,2,0,0,1-2.06,2,2,2,0,0,1-1.92-1.9,1.91,1.91,0,0,1,2-2A2,2,0,0,1,281.77,424.16Z" transform="translate(0 0)"/><path class="cls-13" d="M289.31,392.82V346.91a10.45,10.45,0,0,1,4.47,1.6,18.23,18.23,0,0,1,7.36,8.58,30.7,30.7,0,0,1,1.25,22.55,22.1,22.1,0,0,1-6.95,10.59,12,12,0,0,1-5.39,2.55A5,5,0,0,1,289.31,392.82Z" transform="translate(0 0)"/><path class="cls-13" d="M286.35,393c-1.1-.35-2.26-.61-3.33-1-3.55-1.47-5.88-4.24-7.67-7.4a29.73,29.73,0,0,1-3.13-20.7,1.07,1.07,0,0,1,1-1,5.41,5.41,0,0,0,4-3.17c.4-.84.77-1.69,1.22-2.51a4.09,4.09,0,0,1,4.2-2.4,5.08,5.08,0,0,0,3.67-1.08Z" transform="translate(0 0)"/><path class="cls-13" d="M286,347.08c0,1.35.24,2.64-.7,3.77a3,3,0,0,1-2.42,1.21,7.32,7.32,0,0,0-7.46,5.22,4.81,4.81,0,0,1-1.85,2.61C273.12,355.55,281.52,346.87,286,347.08Z" transform="translate(0 0)"/></svg>